<svg width="1502" height="1502" xmlns="http://www.w3.org/2000/svg" xmlns:xlink="http://www.w3.org/1999/xlink" xml:space="preserve" overflow="hidden"><defs><radialGradient cx="0" cy="0" r="5885822" gradientUnits="userSpaceOnUse" spreadMethod="pad" id="fill0" gradientTransform="matrix(0.000360892 0 0 0.000360892 1201 213)"><stop offset="0" stop-color="#FF724E"/><stop offset="0.0117647" stop-color="#FE714D"/><stop offset="0.0235294" stop-color="#FE714D"/><stop offset="0.0352941" stop-color="#FE714D"/><stop offset="0.0470588" stop-color="#FE714D"/><stop offset="0.0588235" stop-color="#FE714D"/><stop offset="0.0705882" stop-color="#FE714D"/><stop offset="0.0823529" stop-color="#FE714D"/><stop offset="0.0941176" stop-color="#FE704D"/><stop offset="0.105882" stop-color="#FE704D"/><stop offset="0.117647" stop-color="#FD704D"/><stop offset="0.129412" stop-color="#FD704D"/><stop offset="0.141176" stop-color="#FD6F4D"/><stop offset="0.152941" stop-color="#FD6F4D"/><stop offset="0.164706" stop-color="#FC6F4D"/><stop offset="0.176471" stop-color="#FC6E4D"/><stop offset="0.188235" stop-color="#FC6E4D"/><stop offset="0.2" stop-color="#FC6D4D"/><stop offset="0.211765" stop-color="#FB6D4D"/><stop offset="0.223529" stop-color="#FB6C4D"/><stop offset="0.235294" stop-color="#FB6C4D"/><stop offset="0.247059" stop-color="#FA6B4C"/><stop offset="0.258824" stop-color="#FA6B4C"/><stop offset="0.270588" stop-color="#F96A4C"/><stop offset="0.282353" stop-color="#F9694C"/><stop offset="0.294118" stop-color="#F8694C"/><stop offset="0.305882" stop-color="#F8684C"/><stop offset="0.317647" stop-color="#F8674C"/><stop offset="0.329412" stop-color="#F7674C"/><stop offset="0.341176" stop-color="#F7664C"/><stop offset="0.352941" stop-color="#F6654B"/><stop offset="0.364706" stop-color="#F5654B"/><stop offset="0.376471" stop-color="#F5644B"/><stop offset="0.388235" stop-color="#F4634B"/><stop offset="0.4" stop-color="#F4624B"/><stop offset="0.411765" stop-color="#F3614B"/><stop offset="0.423529" stop-color="#F3604B"/><stop offset="0.435294" stop-color="#F25F4A"/><stop offset="0.447059" stop-color="#F15E4A"/><stop offset="0.458824" stop-color="#F15E4A"/><stop offset="0.470588" stop-color="#F05D4A"/><stop offset="0.482353" stop-color="#EF5C4A"/><stop offset="0.494118" stop-color="#EF5B4A"/><stop offset="0.505882" stop-color="#EE5A49"/><stop offset="0.517647" stop-color="#ED5849"/><stop offset="0.529412" stop-color="#EC5749"/><stop offset="0.541176" stop-color="#EC5649"/><stop offset="0.552941" stop-color="#EB5549"/><stop offset="0.564706" stop-color="#EA5448"/><stop offset="0.576471" stop-color="#E95348"/><stop offset="0.588235" stop-color="#E85248"/><stop offset="0.6" stop-color="#E75048"/><stop offset="0.611765" stop-color="#E74F48"/><stop offset="0.623529" stop-color="#E64E47"/><stop offset="0.635294" stop-color="#E54D47"/><stop offset="0.647059" stop-color="#E44B47"/><stop offset="0.658824" stop-color="#E34A47"/><stop offset="0.670588" stop-color="#E24946"/><stop offset="0.682353" stop-color="#E14746"/><stop offset="0.694118" stop-color="#E04646"/><stop offset="0.705882" stop-color="#DF4546"/><stop offset="0.717647" stop-color="#DE4345"/><stop offset="0.729412" stop-color="#DD4245"/><stop offset="0.741176" stop-color="#DC4045"/><stop offset="0.752941" stop-color="#DB3F45"/><stop offset="0.764706" stop-color="#DA3D44"/><stop offset="0.776471" stop-color="#D93C44"/><stop offset="0.788235" stop-color="#D83A44"/><stop offset="0.8" stop-color="#D73944"/><stop offset="0.811765" stop-color="#D63743"/><stop offset="0.823529" stop-color="#D53643"/><stop offset="0.835294" stop-color="#D43443"/><stop offset="0.847059" stop-color="#D33343"/><stop offset="0.858824" stop-color="#D13142"/><stop offset="0.870588" stop-color="#D02F42"/><stop offset="0.882353" stop-color="#CF2D42"/><stop offset="0.894118" stop-color="#CE2C41"/><stop offset="0.905882" stop-color="#CD2A41"/><stop offset="0.917647" stop-color="#CB2841"/><stop offset="0.929412" stop-color="#CA2740"/><stop offset="0.941176" stop-color="#C92540"/><stop offset="0.952941" stop-color="#C82340"/><stop offset="0.964706" stop-color="#C6213F"/><stop offset="0.976471" stop-color="#C51F3F"/><stop offset="0.988235" stop-color="#C41D3F"/><stop offset="1" stop-color="#C31C3F"/></radialGradient></defs><g transform="translate(-1201 -213)"><path d="M1201 463.338C1201 325.08 1313.08 213 1451.34 213L2452.66 213C2590.92 213 2703 325.08 2703 463.338L2703 1464.66C2703 1602.92 2590.92 1715 2452.66 1715L1451.34 1715C1313.08 1715 1201 1602.92 1201 1464.66Z" fill="#FFFFFF" fill-rule="evenodd"/><path d="M1962.74 921.767C1955.29 921.767 1947.83 924.244 1941.7 929.198L1781.04 1059.1C1765.83 1071.4 1759.01 1091.34 1763.56 1110.4L1791.52 1227.6C1801.55 1269.63 1839.1 1299.27 1882.28 1299.27L1898.16 1299.27C1916.82 1299.27 1931.97 1284.15 1931.97 1265.45L1931.97 1170.88C1931.97 1163.97 1937.58 1158.37 1944.49 1158.37L1981 1158.37C1987.91 1158.37 1993.51 1163.97 1993.51 1170.88L1993.51 1265.45C1993.51 1284.12 2008.63 1299.27 2027.33 1299.27L2043.21 1299.27C2086.39 1299.27 2123.96 1269.63 2133.96 1227.6L2161.93 1110.4C2166.47 1091.37 2159.69 1071.4 2144.44 1059.1L1983.79 929.198C1977.65 924.244 1970.2 921.767 1962.74 921.767ZM2242.77 813.084C2228.94 811.902 2214.73 814.857 2201.59 821.689 2179.11 833.386 2165.56 854.112 2153.35 875.596 2131.29 914.411 2120.75 954.318 2132.32 998.437 2133.81 1004.1 2136.44 1009.32 2139.93 1013.95 2151.35 1031.98 2171.35 1044.19 2194.11 1041.46 2237.07 1036.34 2277.04 996.346 2295.89 959.378 2315.46 921.017 2317.59 859.354 2281.65 829.295 2270.04 819.584 2256.6 814.266 2242.77 813.084ZM1677.55 813.084C1663.72 814.266 1650.28 819.584 1638.69 829.295 1602.75 859.354 1604.87 921.017 1624.44 959.378 1643.29 996.346 1683.26 1036.34 1726.23 1041.46 1748.98 1044.16 1768.98 1031.98 1780.4 1013.95 1783.89 1009.32 1786.53 1004.1 1788.01 998.437 1799.58 954.349 1789.04 914.411 1766.98 875.596 1754.77 854.112 1741.25 833.386 1718.74 821.689 1705.61 814.857 1691.39 811.902 1677.55 813.084ZM2059.66 616.349C2035.91 617.334 2014.1 629.254 1998.85 648.912 1981.42 671.365 1977.36 698.788 1975 726.392 1970.73 776.238 1978.73 821.811 2011.15 861.294 2015.33 866.354 2020.45 870.414 2026.18 873.505 2046.24 886.504 2072.33 889.565 2094.23 876.141 2135.57 850.809 2157.5 791.358 2159.38 744.876 2161.32 696.667 2134.6 632.913 2083.9 619.126 2075.72 616.906 2067.58 616.02 2059.66 616.349ZM1859.58 615.52C1825.98 611.035 1795.89 627.58 1779.19 656.245 1764.89 680.789 1764.47 708.514 1765.77 736.179 1768.1 786.176 1782.01 830.295 1819.37 865.141 1824.16 869.626 1829.8 872.959 1835.89 875.262 1857.49 885.504 1883.76 885.08 1903.67 868.899 1941.3 838.325 1955.24 776.51 1950.97 730.21L1950.94 730.241C1946.52 682.183 1911.64 622.489 1859.58 615.52ZM1946.33 512.041C1978.03 511.768 2010 514.859 2041.78 521.374 2159.26 545.554 2260.32 614.005 2326.31 714.181 2462.55 920.957 2405.13 1200.03 2198.35 1336.27 2098.17 1402.26 1978.3 1425.29 1860.79 1401.11 1743.29 1376.93 1642.23 1308.48 1576.26 1208.3 1510.27 1108.13 1487.24 988.256 1511.42 870.778 1535.6 753.27 1604.05 652.245 1704.23 586.249 1777.31 538.1 1860.85 512.829 1946.33 512.041ZM1451.34 213 2452.66 213C2590.92 213 2703 325.08 2703 463.338L2703 1464.66C2703 1551.07 2659.22 1627.26 2592.63 1672.25L2562.53 1688.58 2435.27 1491.23C2428.41 1480.59 2416.09 1475.65 2404.38 1477.69 2400.48 1478.37 2396.64 1479.83 2393.1 1482.11L2382.22 1489.14 2321.55 1397.05C2418.79 1314.75 2485.45 1203.18 2511.51 1076.46 2542.3 926.835 2512.97 774.177 2428.94 646.609 2344.89 519.01 2216.2 431.803 2066.54 401.017 2029.13 393.321 1991.53 389.381 1954.18 389.115 1842.14 388.317 1732.32 420.577 1636.62 483.619 1509.03 567.674 1421.82 696.364 1391.03 846.021 1360.25 995.649 1389.58 1148.34 1473.63 1275.91 1557.69 1403.5 1686.38 1490.71 1836.04 1521.5 1876.52 1529.83 1917.21 1533.74 1957.58 1533.38 2042.36 1532.62 2125.63 1512.83 2202.29 1475.2L2262.38 1566.4 2262.38 1566.4C2262.38 1566.4 2253.95 1571.86 2253.95 1571.86 2239.77 1581.01 2235.68 1599.89 2244.83 1614.07L2309.91 1715 1451.34 1715C1313.08 1715 1201 1602.92 1201 1464.66L1201 463.338C1201 325.08 1313.08 213 1451.34 213Z" fill="url(#fill0)" fill-rule="evenodd"/></g></svg>