<svg width="903" height="903" xmlns="http://www.w3.org/2000/svg" xmlns:xlink="http://www.w3.org/1999/xlink" xml:space="preserve" overflow="hidden"><defs><clipPath id="clip0"><rect x="1081" y="495" width="903" height="903"/></clipPath><radialGradient cx="-0.125" cy="-0.125" r="3538548" fx="0" fy="0" gradientUnits="userSpaceOnUse" spreadMethod="pad" id="fill1" gradientTransform="matrix(0.000360892 0 0 0.000360892 1081 495)"><stop offset="0" stop-color="#FF724E"/><stop offset="0.0117647" stop-color="#FE714D"/><stop offset="0.0235294" stop-color="#FE714D"/><stop offset="0.0352941" stop-color="#FE714D"/><stop offset="0.0470588" stop-color="#FE714D"/><stop offset="0.0588235" stop-color="#FE714D"/><stop offset="0.0705882" stop-color="#FE714D"/><stop offset="0.0823529" stop-color="#FE714D"/><stop offset="0.0941176" stop-color="#FE704D"/><stop offset="0.105882" stop-color="#FE704D"/><stop offset="0.117647" stop-color="#FD704D"/><stop offset="0.129412" stop-color="#FD704D"/><stop offset="0.141176" stop-color="#FD6F4D"/><stop offset="0.152941" stop-color="#FD6F4D"/><stop offset="0.164706" stop-color="#FC6F4D"/><stop offset="0.176471" stop-color="#FC6E4D"/><stop offset="0.188235" stop-color="#FC6E4D"/><stop offset="0.2" stop-color="#FC6D4D"/><stop offset="0.211765" stop-color="#FB6D4D"/><stop offset="0.223529" stop-color="#FB6C4D"/><stop offset="0.235294" stop-color="#FB6C4D"/><stop offset="0.247059" stop-color="#FA6B4C"/><stop offset="0.258824" stop-color="#FA6B4C"/><stop offset="0.270588" stop-color="#F96A4C"/><stop offset="0.282353" stop-color="#F9694C"/><stop offset="0.294118" stop-color="#F8694C"/><stop offset="0.305882" stop-color="#F8684C"/><stop offset="0.317647" stop-color="#F8674C"/><stop offset="0.329412" stop-color="#F7674C"/><stop offset="0.341176" stop-color="#F7664C"/><stop offset="0.352941" stop-color="#F6654B"/><stop offset="0.364706" stop-color="#F5654B"/><stop offset="0.376471" stop-color="#F5644B"/><stop offset="0.388235" stop-color="#F4634B"/><stop offset="0.4" stop-color="#F4624B"/><stop offset="0.411765" stop-color="#F3614B"/><stop offset="0.423529" stop-color="#F3604B"/><stop offset="0.435294" stop-color="#F25F4A"/><stop offset="0.447059" stop-color="#F15E4A"/><stop offset="0.458824" stop-color="#F15E4A"/><stop offset="0.470588" stop-color="#F05D4A"/><stop offset="0.482353" stop-color="#EF5C4A"/><stop offset="0.494118" stop-color="#EF5B4A"/><stop offset="0.505882" stop-color="#EE5A49"/><stop offset="0.517647" stop-color="#ED5849"/><stop offset="0.529412" stop-color="#EC5749"/><stop offset="0.541176" stop-color="#EC5649"/><stop offset="0.552941" stop-color="#EB5549"/><stop offset="0.564706" stop-color="#EA5448"/><stop offset="0.576471" stop-color="#E95348"/><stop offset="0.588235" stop-color="#E85248"/><stop offset="0.6" stop-color="#E75048"/><stop offset="0.611765" stop-color="#E74F48"/><stop offset="0.623529" stop-color="#E64E47"/><stop offset="0.635294" stop-color="#E54D47"/><stop offset="0.647059" stop-color="#E44B47"/><stop offset="0.658824" stop-color="#E34A47"/><stop offset="0.670588" stop-color="#E24946"/><stop offset="0.682353" stop-color="#E14746"/><stop offset="0.694118" stop-color="#E04646"/><stop offset="0.705882" stop-color="#DF4546"/><stop offset="0.717647" stop-color="#DE4345"/><stop offset="0.729412" stop-color="#DD4245"/><stop offset="0.741176" stop-color="#DC4045"/><stop offset="0.752941" stop-color="#DB3F45"/><stop offset="0.764706" stop-color="#DA3D44"/><stop offset="0.776471" stop-color="#D93C44"/><stop offset="0.788235" stop-color="#D83A44"/><stop offset="0.8" stop-color="#D73944"/><stop offset="0.811765" stop-color="#D63743"/><stop offset="0.823529" stop-color="#D53643"/><stop offset="0.835294" stop-color="#D43443"/><stop offset="0.847059" stop-color="#D33343"/><stop offset="0.858824" stop-color="#D13142"/><stop offset="0.870588" stop-color="#D02F42"/><stop offset="0.882353" stop-color="#CF2D42"/><stop offset="0.894118" stop-color="#CE2C41"/><stop offset="0.905882" stop-color="#CD2A41"/><stop offset="0.917647" stop-color="#CB2841"/><stop offset="0.929412" stop-color="#CA2740"/><stop offset="0.941176" stop-color="#C92540"/><stop offset="0.952941" stop-color="#C82340"/><stop offset="0.964706" stop-color="#C6213F"/><stop offset="0.976471" stop-color="#C51F3F"/><stop offset="0.988235" stop-color="#C41D3F"/><stop offset="1" stop-color="#C31C3F"/></radialGradient></defs><g clip-path="url(#clip0)" transform="translate(-1081 -495)"><path d="M1081 645.503C1081 562.382 1148.38 495 1231.5 495L1833.5 495C1916.62 495 1984 562.382 1984 645.503L1984 1247.5C1984 1330.62 1916.62 1398 1833.5 1398L1231.5 1398C1148.38 1398 1081 1330.62 1081 1247.5Z" fill="url(#fill1)" fill-rule="evenodd"/><path d="M1440.08 597.728C1492.02 604.687 1526.82 664.3 1531.23 712.293L1531.26 712.263C1535.52 758.5 1521.61 820.231 1484.07 850.763 1464.2 866.922 1437.99 867.346 1416.44 857.118 1410.36 854.818 1404.74 851.489 1399.96 847.011 1362.68 812.212 1348.81 768.153 1346.48 718.224 1345.18 690.596 1345.6 662.908 1359.87 638.397 1376.53 609.771 1406.55 593.249 1440.08 597.728Z" fill="#FFFFFF" fill-rule="evenodd"/><path d="M1639.94 599.066C1647.88 598.739 1656.03 599.623 1664.23 601.838 1715.05 615.596 1741.85 679.216 1739.9 727.324 1738.02 773.709 1716.03 833.035 1674.59 858.314 1652.63 871.709 1626.48 868.655 1606.37 855.683 1600.63 852.599 1595.49 848.547 1591.3 843.497 1558.8 804.098 1550.78 758.62 1555.06 708.879 1557.43 681.333 1561.5 653.968 1578.97 631.561 1594.25 611.945 1616.12 600.05 1639.94 599.066Z" fill="#FFFFFF" fill-rule="evenodd"/><path d="M1257.96 795.254C1271.77 794.072 1285.97 797.027 1299.09 803.859 1321.57 815.555 1335.06 836.281 1347.26 857.763 1369.28 896.578 1379.81 936.514 1368.25 980.6 1366.77 986.267 1364.14 991.478 1360.66 996.114 1349.25 1014.14 1329.28 1026.32 1306.56 1023.63 1263.66 1018.51 1223.75 978.51 1204.93 941.543 1185.38 903.183 1183.26 841.522 1219.15 811.465 1230.72 801.754 1244.15 796.436 1257.96 795.254Z" fill="#FFFFFF" fill-rule="evenodd"/><path d="M1823.03 795.254C1836.84 796.436 1850.26 801.753 1861.85 811.464 1897.74 841.521 1895.62 903.18 1876.07 941.539 1857.25 978.504 1817.34 1018.5 1774.44 1023.62 1751.72 1026.35 1731.75 1014.14 1720.34 996.108 1716.86 991.472 1714.23 986.261 1712.75 980.595 1701.19 936.479 1711.72 896.575 1733.74 857.762 1745.94 836.279 1759.46 815.555 1781.91 803.859 1795.03 797.027 1809.22 794.072 1823.03 795.254Z" fill="#FFFFFF" fill-rule="evenodd"/><path d="M1543.5 904C1550.95 904 1558.4 906.481 1564.53 911.441L1725.13 1041.51C1740.37 1053.83 1747.15 1073.83 1742.61 1092.88L1714.65 1210.24C1704.66 1252.33 1667.1 1282 1623.93 1282L1608.06 1282C1589.37 1282 1574.26 1266.83 1574.26 1248.14L1574.26 1153.44C1574.26 1146.53 1568.65 1140.91 1561.75 1140.91L1525.25 1140.91C1518.34 1140.91 1512.74 1146.53 1512.74 1153.44L1512.74 1248.14C1512.74 1266.86 1497.59 1282 1478.94 1282L1463.06 1282C1419.9 1282 1382.37 1252.33 1372.35 1210.24L1344.39 1092.88C1339.84 1073.8 1346.66 1053.83 1361.86 1041.51L1522.46 911.441C1528.6 906.481 1536.05 904 1543.5 904Z" fill="#FFFFFF" fill-rule="evenodd"/></g></svg>