<svg width="1485" height="1101" xmlns="http://www.w3.org/2000/svg" xmlns:xlink="http://www.w3.org/1999/xlink" xml:space="preserve" overflow="hidden"><defs><clipPath id="clip0"><rect x="1458" y="776" width="1485" height="1101"/></clipPath></defs><g clip-path="url(#clip0)" transform="translate(-1458 -776)"><path d="M1458 1722 2943 1722 2943 1723 1458 1723Z" fill="#EBEBEB" fill-rule="evenodd"/><path d="M2773 1777 2887 1777 2887 1778 2773 1778Z" fill="#EBEBEB" fill-rule="evenodd"/><path d="M2449 1787 2479 1787 2479 1788 2449 1788Z" fill="#EBEBEB" fill-rule="evenodd"/><path d="M2704 1745 2770 1745 2770 1746 2704 1746Z" fill="#EBEBEB" fill-rule="evenodd"/><path d="M1521 1751 1669 1751 1669 1752 1521 1752Z" fill="#EBEBEB" fill-rule="evenodd"/><path d="M1700 1751 1722 1751 1722 1752 1700 1752Z" fill="#EBEBEB" fill-rule="evenodd"/><path d="M1793 1766 2115 1766 2115 1767 1793 1767Z" fill="#EBEBEB" fill-rule="evenodd"/><path d="M2760 876.094 2611.84 790 2497.67 790 2347 872.005 2347 1430 2760 1430 2760 876.094Z" fill="#E0E0E0" fill-rule="evenodd"/><path d="M2343 876.094 2347.26 872.005C2402.34 819.099 2474.87 790 2551.5 790 2551.5 790 2551.5 790 2551.5 790 2628.13 790 2700.66 819.133 2755.74 872.005L2760 876.094 2760 1430 2343 1430 2343 876.094ZM2732.33 887.946C2682.99 842.563 2618.98 817.621 2551.5 817.621 2483.98 817.621 2420.01 842.563 2370.67 887.946L2370.67 1402.34 2732.33 1402.34 2732.33 887.946Z" fill="#FAFAFA" fill-rule="evenodd"/><path d="M2561.36 1406 2540.64 1406 2540.64 1220.71 2365 1220.71 2365 1199.98 2540.64 1199.98 2540.64 1010.43 2365 1010.43 2365 989.699 2540.64 989.699 2540.64 814 2561.36 814 2561.36 989.699 2737 989.699 2737 1010.43 2561.36 1010.43 2561.36 1199.98 2737 1199.98 2737 1220.71 2561.36 1220.71 2561.36 1406Z" fill="#F0F0F0" fill-rule="evenodd"/><path d="M2329 870.311 2333.06 866.255C2453.5 745.914 2649.5 745.914 2769.94 866.255L2774 870.311 2774 1444 2329.03 1444 2329.03 870.311ZM2746.31 881.826C2637.73 777.538 2465.3 777.573 2356.69 881.826L2356.69 1416.33 2746.31 1416.33 2746.31 881.826Z" fill="#F0F0F0" fill-rule="evenodd"/><path d="M1910 1031 1923 1031 1923 1233 1910 1233Z" fill="#E0E0E0" fill-rule="evenodd"/><path d="M2042 1278.5C2042 1329.03 1985.81 1370 1916.5 1370 1847.19 1370 1791 1329.03 1791 1278.5 1791 1227.97 1847.19 1187 1916.5 1187 1985.81 1187 2042 1227.97 2042 1278.5Z" fill="#E0E0E0" fill-rule="evenodd"/><path d="M1641 1356 1641 1718 1684.63 1718 1684.63 1449.48 2149.37 1449.48 2149.37 1718 2193 1718 2193 1356 1641 1356Z" fill="#E0E0E0" fill-rule="evenodd"/><path d="M1626 1334 2207 1334 2207 1414 1626 1414Z" fill="#F0F0F0" fill-rule="evenodd"/><path d="M1830 1181 2004 1181 2004 1214 1830 1214Z" fill="#E0E0E0" fill-rule="evenodd"/><path d="M2086 1151 1747 1151 1814.31 907 2018.72 907 2086 1151Z" fill="#F0F0F0" fill-rule="evenodd"/><path d="M2866 1838C2866 1859.54 2567.82 1877 2200 1877 1832.18 1877 1534 1859.54 1534 1838 1534 1816.46 1832.18 1799 2200 1799 2567.82 1799 2866 1816.46 2866 1838Z" fill="#F5F5F5" fill-rule="evenodd"/><path d="M2544 1565C2544 1565 2581.41 1655.36 2613.03 1677 2613.03 1677 2647.45 1635.76 2716 1621" stroke="#263238" stroke-width="5.74072" stroke-linecap="round" stroke-linejoin="round" stroke-miterlimit="10" fill="none" fill-rule="evenodd"/><path d="M2625.92 1607.38C2625.92 1607.38 2617.65 1546.96 2578.91 1540.37 2540.17 1533.77 2551.86 1504.56 2541.76 1493.25 2531.66 1481.94 2505.3 1515.28 2527.91 1547.62 2550.48 1579.92 2532.04 1569.78 2541.76 1599.82 2551.51 1629.86 2629.43 1657.45 2625.88 1607.38Z" fill="#EC6144" fill-rule="evenodd"/><path d="M2625.92 1607.38C2625.92 1607.38 2617.65 1546.96 2578.91 1540.37 2540.17 1533.77 2551.86 1504.56 2541.76 1493.25 2531.66 1481.94 2505.3 1515.28 2527.91 1547.62 2550.48 1579.92 2532.04 1569.78 2541.76 1599.82 2551.51 1629.86 2629.43 1657.45 2625.88 1607.38Z" fill="#FFFFFF" fill-rule="evenodd" fill-opacity="0.2"/><path d="M2617.59 1647C2605.38 1589.25 2573.28 1535.58 2585.88 1474.91 2594.23 1434.6 2616.73 1398.03 2636.09 1362.19 2654.18 1328.71 2673.3 1295.23 2686.44 1259.42 2698.66 1226.15 2704.29 1190.23 2692.55 1156" stroke="#263238" stroke-width="4.36572" stroke-linecap="round" stroke-linejoin="round" stroke-miterlimit="10" fill="none" fill-rule="evenodd"/><path d="M2701.74 1188C2701.74 1188 2728.03 1114.18 2672.84 1111.1 2617.65 1108.01 2676.65 1179.37 2701.74 1188Z" fill="#EC6144" fill-rule="evenodd"/><path d="M2652 1243C2652 1243 2637.37 1175.63 2597.74 1188.68 2558.14 1201.72 2612.85 1243.17 2652 1243Z" fill="#EC6144" fill-rule="evenodd"/><path d="M2719.14 1251C2719.14 1251 2714.71 1196.93 2756.04 1197 2797.38 1197.07 2777.72 1243.92 2719.14 1251Z" fill="#EC6144" fill-rule="evenodd"/><path d="M2688 1359.28C2688 1359.28 2745.31 1310.48 2764.44 1348.48 2783.56 1386.49 2721.02 1392.6 2688 1359.28Z" fill="#EC6144" fill-rule="evenodd"/><path d="M2589 1348.16C2589 1348.16 2580.82 1264.78 2535.32 1289.62 2489.85 1314.46 2549.77 1355.37 2589 1348.16Z" fill="#EC6144" fill-rule="evenodd"/><path d="M2546.73 1465C2546.73 1465 2582.78 1382.83 2519.79 1390.51 2456.81 1398.19 2503.02 1443.66 2546.73 1465Z" fill="#EC6144" fill-rule="evenodd"/><path d="M2641 1497.83C2641 1497.83 2694.77 1437.7 2734.06 1458.3 2773.35 1478.89 2739.16 1539.19 2641 1497.83Z" fill="#EC6144" fill-rule="evenodd"/><path d="M2701.74 1188C2701.74 1188 2728.03 1114.18 2672.84 1111.1 2617.65 1108.01 2676.65 1179.37 2701.74 1188Z" fill="#FFFFFF" fill-rule="evenodd" fill-opacity="0.2"/><path d="M2652 1243C2652 1243 2637.37 1175.63 2597.74 1188.68 2558.14 1201.72 2612.85 1243.17 2652 1243Z" fill="#FFFFFF" fill-rule="evenodd" fill-opacity="0.2"/><path d="M2719.14 1251C2719.14 1251 2714.71 1196.93 2756.04 1197 2797.38 1197.07 2777.72 1243.92 2719.14 1251Z" fill="#FFFFFF" fill-rule="evenodd" fill-opacity="0.2"/><path d="M2688 1359.28C2688 1359.28 2745.31 1310.48 2764.44 1348.48 2783.56 1386.49 2721.02 1392.6 2688 1359.28Z" fill="#FFFFFF" fill-rule="evenodd" fill-opacity="0.2"/><path d="M2589 1348.16C2589 1348.16 2580.82 1264.78 2535.32 1289.62 2489.85 1314.46 2549.77 1355.37 2589 1348.16Z" fill="#FFFFFF" fill-rule="evenodd" fill-opacity="0.2"/><path d="M2546.73 1465C2546.73 1465 2582.78 1382.83 2519.79 1390.51 2456.81 1398.19 2503.02 1443.66 2546.73 1465Z" fill="#FFFFFF" fill-rule="evenodd" fill-opacity="0.2"/><path d="M2641 1497.83C2641 1497.83 2694.77 1437.7 2734.06 1458.3 2773.35 1478.89 2739.16 1539.19 2641 1497.83Z" fill="#FFFFFF" fill-rule="evenodd" fill-opacity="0.2"/><path d="M2733 1233.62C2733 1233.62 2708.18 1268.56 2675.02 1286 2675.02 1286 2654.55 1243.59 2638 1233" stroke="#263238" stroke-width="4.36572" stroke-linecap="round" stroke-linejoin="round" stroke-miterlimit="10" fill="none" fill-rule="evenodd"/><path d="M2731 1355.81C2731 1355.81 2670.55 1352.25 2621.69 1387 2621.69 1387 2596.33 1341.4 2562 1320" stroke="#263238" stroke-width="4.36572" stroke-linecap="round" stroke-linejoin="round" stroke-miterlimit="10" fill="none" fill-rule="evenodd"/><path d="M2529 1425C2529 1425 2553.15 1494.37 2585.59 1522 2585.59 1522 2655.46 1483.84 2706 1484.22" stroke="#263238" stroke-width="4.36572" stroke-linecap="round" stroke-linejoin="round" stroke-miterlimit="10" fill="none" fill-rule="evenodd"/><path d="M2604.38 1617.72C2604.38 1617.72 2584.14 1577.58 2622.16 1562.77 2660.17 1547.97 2665.49 1564.21 2689.23 1553.13 2712.97 1542.05 2733.76 1510.76 2734.96 1532.51 2736.16 1554.26 2709.16 1563.35 2717.02 1574.19 2724.87 1585.03 2648.13 1639.98 2604.38 1617.76Z" fill="#EC6144" fill-rule="evenodd"/><path d="M2605 1597.87C2605 1597.87 2576.5 1569.3 2551.71 1569.82 2526.91 1570.33 2510.59 1545.44 2505.47 1563.71 2500.39 1581.97 2536.7 1630.79 2605 1597.87Z" fill="#EC6144" fill-rule="evenodd"/><path d="M2472 1593 2481.5 1674.96 2482.77 1685.78 2486.72 1720.18 2489.61 1744.44 2491.44 1760.24 2500.66 1840 2738.31 1840 2747.56 1760.24 2749.39 1744.44 2752.24 1720.18 2756.2 1685.78 2757.47 1674.96 2767 1593 2472 1593Z" fill="#263238" fill-rule="evenodd"/><path d="M2487 1720 2489.88 1744 2749.15 1744 2752 1720 2487 1720Z" fill="#000000" fill-rule="evenodd" fill-opacity="0.4"/><path d="M2491 1760 2500.22 1840 2737.75 1840 2747 1760 2491 1760Z" fill="#000000" fill-rule="evenodd" fill-opacity="0.4"/><path d="M2481 1675 2482.27 1686 2755.73 1686 2757 1675 2481 1675Z" fill="#000000" fill-rule="evenodd" fill-opacity="0.4"/><path d="M2631 1839.83 1666.71 1839.83C1663.06 1834.13 1660.93 1827.88 1660.24 1821.6 1660.17 1820.94 1660.14 1820.26 1660.07 1819.61 1660.03 1818.95 1660 1818.27 1660 1817.61 1660 1816.96 1660 1816.27 1660.03 1815.62 1660.07 1814.18 1660.21 1812.74 1660.45 1811.33 1660.52 1810.78 1660.62 1810.23 1660.72 1809.72 1660.86 1809.1 1661 1808.45 1661.14 1807.86 1661.31 1807.18 1661.48 1806.52 1661.69 1805.87 1662.06 1804.6 1662.51 1803.4 1663.06 1802.2 1663.3 1801.61 1663.61 1801 1663.89 1800.41 1664.16 1799.83 1664.47 1799.24 1664.82 1798.66 1664.82 1798.66 1664.82 1798.66 1664.82 1798.66 1665.16 1798.08 1665.47 1797.56 1665.85 1796.98 1666.54 1795.88 1667.33 1794.78 1668.19 1793.75 1668.6 1793.2 1669.01 1792.72 1669.5 1792.21 1669.84 1791.79 1670.22 1791.42 1670.6 1791 1671.39 1790.25 1672.18 1789.49 1673.04 1788.77 1673.9 1788.05 1674.76 1787.36 1675.69 1786.75 1676.48 1786.2 1677.24 1785.68 1678.06 1785.24 1678.13 1785.17 1678.2 1785.13 1678.27 1785.1 1679.03 1784.69 1679.75 1784.27 1680.58 1783.86 1680.85 1783.73 1681.16 1783.59 1681.44 1783.45 1682.33 1783.04 1683.29 1782.63 1684.29 1782.25 1685.19 1781.91 1686.08 1781.6 1687.01 1781.32 1713.64 1773.15 1786.59 1779.74 1794.91 1779.74 1795.36 1779.74 1795.84 1779.64 1796.36 1779.43 1801.56 1777.37 1809.4 1765.36 1814.91 1755.88 1815.22 1755.36 1815.53 1754.85 1815.8 1754.33 1819 1748.81 1821.24 1744.48 1821.44 1744.07L1813.32 1744.07C1813.32 1744.07 1813.32 1744.07 1813.32 1744.07 1815.63 1739.88 1817.59 1735.66 1819.34 1731.4 1820.31 1729.1 1821.2 1726.76 1821.99 1724.5 1822.34 1723.57 1822.65 1722.68 1822.92 1721.75 1823.99 1718.52 1824.92 1715.36 1825.74 1712.41 1826.16 1710.93 1826.54 1709.46 1826.88 1708.08 1827.22 1706.68 1827.53 1705.3 1827.81 1704 1828.05 1702.87 1828.33 1701.73 1828.53 1700.67 1828.7 1699.88 1828.84 1699.05 1828.98 1698.33 1829.29 1696.72 1829.53 1695.31 1829.77 1694.01 1829.84 1693.42 1829.94 1692.91 1830.01 1692.39 1830.11 1691.95 1830.18 1691.47 1830.22 1691.09 1830.29 1690.68 1830.32 1690.33 1830.36 1689.99 1830.39 1689.65 1830.46 1689.34 1830.49 1689.06 1830.6 1688.14 1830.66 1687.62 1830.66 1687.62L1824.54 1687.62C1824.37 1685.87 1824.23 1684.12 1824.13 1682.37 1824.06 1681.58 1824.02 1680.75 1824.02 1679.93 1823.99 1679.28 1823.96 1678.63 1823.96 1677.97 1823.89 1676.02 1823.92 1674.02 1823.96 1672.03 1823.96 1670.73 1824.06 1669.39 1824.09 1668.05 1824.13 1666.92 1824.2 1665.78 1824.26 1664.65 1824.26 1664.03 1824.33 1663.42 1824.37 1662.8L1824.37 1662.8C1824.61 1659.57 1824.92 1656.38 1825.33 1653.18 1825.43 1652.12 1825.61 1651.05 1825.74 1650.02 1825.88 1648.96 1826.05 1647.93 1826.19 1646.87 1826.5 1644.81 1826.85 1642.75 1827.19 1640.72 1827.53 1638.69 1827.91 1636.7 1828.29 1634.75 1828.88 1631.79 1829.49 1628.94 1830.11 1626.2 1830.32 1625.3 1830.53 1624.41 1830.73 1623.52 1831.15 1621.73 1831.56 1620.02 1832.01 1618.37 1832.04 1618.23 1832.08 1618.09 1832.11 1617.96 1832.49 1616.44 1832.9 1614.97 1833.25 1613.63 1833.25 1613.63 1833.25 1613.56 1833.25 1613.56 1833.66 1612.08 1834.07 1610.64 1834.42 1609.3 1835.76 1604.5 1836.96 1600.68 1837.82 1598.14 1837.93 1597.77 1838.03 1597.46 1838.13 1597.15 1838.34 1596.56 1838.48 1596.12 1838.58 1595.74 1838.75 1595.33 1838.82 1595.09 1838.85 1594.95 1838.85 1594.95 1838.85 1594.93 1838.85 1594.88 1838.85 1594.88 1838.85 1594.81 1838.85 1594.81L1832.25 1594.81 1858.74 1485.25C1858.74 1485.25 1956.36 1453.7 1999.82 1456.13 2001.4 1456.2 2002.95 1456.34 2004.39 1456.55 2005.11 1456.62 2005.84 1456.75 2006.49 1456.86 2007.7 1457.06 2008.83 1457.3 2009.93 1457.61 2011.48 1457.99 2012.89 1458.5 2014.1 1459.12 2014.89 1459.5 2015.61 1459.91 2016.26 1460.39 2016.68 1460.67 2017.05 1460.98 2017.36 1461.32 2017.71 1461.63 2018.02 1461.94 2018.29 1462.28 2018.84 1463 2019.33 1463.72 2019.63 1464.58 2019.84 1464.99 2019.94 1465.44 2020.05 1465.89 2020.7 1468.74 2021.7 1471.89 2022.97 1475.19 2023.25 1475.88 2023.52 1476.56 2023.83 1477.28 2024.42 1478.83 2025.14 1480.44 2025.9 1482.06 2026.31 1483.02 2026.79 1484.01 2027.27 1485.01 2028.62 1487.83 2030.09 1490.68 2031.68 1493.59 2038.73 1506.68 2047.75 1520.55 2055.56 1531.95 2058.48 1536.2 2061.23 1540.12 2063.68 1543.52 2064.33 1544.41 2064.92 1545.23 2065.5 1546.02 2066.53 1547.47 2067.46 1548.74 2068.36 1549.9 2069.25 1551.07 2070.04 1552.14 2070.7 1553.06L2070.7 1553.06C2071.01 1553.51 2071.32 1553.96 2071.59 1554.3 2071.73 1554.5 2071.87 1554.68 2072 1554.85 2072.45 1555.43 2072.8 1555.95 2073.11 1556.32 2073.42 1556.7 2073.62 1556.94 2073.69 1557.08 2073.69 1557.08 2073.76 1557.15 2073.76 1557.18L2060.55 1557.05C2082.57 1573.77 2152.28 1603.91 2152.28 1603.91L2145.81 1608.68C2210.36 1633.48 2443.41 1624.2 2446.5 1624.1L2443.03 1625.51 2433.91 1629.11 2433.84 1629.11C2436.11 1629.42 2438.42 1629.73 2440.65 1630.11 2450.77 1631.76 2460.37 1634.44 2469.32 1637.7 2471.31 1638.45 2473.24 1639.17 2475.13 1639.93 2477.99 1641.1 2480.81 1642.3 2483.49 1643.57 2515.32 1658.16 2535.69 1677.9 2535.69 1677.9L2518.73 1677.9C2531.6 1684.67 2556.71 1720.17 2579.87 1756.22 2590.3 1772.46 2600.34 1788.77 2608.7 1802.64 2621.71 1824.31 2630.69 1840 2630.69 1840Z" fill="#EC6144" fill-rule="evenodd"/><path d="M2631 1839.83 1666.71 1839.83C1663.06 1834.13 1660.93 1827.88 1660.24 1821.6 1660.17 1820.94 1660.14 1820.26 1660.07 1819.61 1660.03 1818.95 1660 1818.27 1660 1817.61 1660 1816.96 1660 1816.27 1660.03 1815.62 1660.07 1814.18 1660.21 1812.74 1660.45 1811.33 1660.52 1810.78 1660.62 1810.23 1660.72 1809.72 1660.86 1809.1 1661 1808.45 1661.14 1807.86 1661.31 1807.18 1661.48 1806.52 1661.69 1805.87 1662.06 1804.6 1662.51 1803.4 1663.06 1802.2 1663.3 1801.61 1663.61 1801 1663.89 1800.41 1664.16 1799.83 1664.47 1799.24 1664.82 1798.66 1664.82 1798.66 1664.82 1798.66 1664.82 1798.66 1665.16 1798.08 1665.47 1797.56 1665.85 1796.98 1666.54 1795.88 1667.33 1794.78 1668.19 1793.75 1668.6 1793.2 1669.01 1792.72 1669.5 1792.21 1669.84 1791.79 1670.22 1791.42 1670.6 1791 1671.39 1790.25 1672.18 1789.49 1673.04 1788.77 1673.9 1788.05 1674.76 1787.36 1675.69 1786.75 1676.48 1786.2 1677.24 1785.68 1678.06 1785.24 1678.13 1785.17 1678.2 1785.13 1678.27 1785.1 1679.03 1784.69 1679.75 1784.27 1680.58 1783.86 1680.85 1783.73 1681.16 1783.59 1681.44 1783.45 1682.33 1783.04 1683.29 1782.63 1684.29 1782.25 1685.19 1781.91 1686.08 1781.6 1687.01 1781.32 1713.64 1773.15 1786.59 1779.74 1794.91 1779.74 1795.36 1779.74 1795.84 1779.64 1796.36 1779.43 1801.56 1777.37 1809.4 1765.36 1814.91 1755.88 1815.22 1755.36 1815.53 1754.85 1815.8 1754.33 1819 1748.81 1821.24 1744.48 1821.44 1744.07L1821.44 1744.07C1821.44 1744.07 1813.29 1744.07 1813.29 1744.07 1815.59 1739.88 1817.59 1735.66 1819.38 1731.4 1820 1729.78 1820.65 1728.21 1821.24 1726.63 1821.55 1725.91 1821.79 1725.18 1822.03 1724.5 1822.37 1723.57 1822.68 1722.68 1822.96 1721.75 1824.02 1718.52 1824.95 1715.36 1825.78 1712.41 1826.19 1710.93 1826.57 1709.46 1826.91 1708.08 1827.26 1706.68 1827.57 1705.3 1827.84 1704 1828.08 1702.87 1828.36 1701.73 1828.57 1700.67 1828.74 1699.88 1828.88 1699.05 1829.01 1698.33 1829.32 1696.72 1829.56 1695.31 1829.8 1694.01 1829.87 1693.42 1829.98 1692.91 1830.05 1692.39 1830.15 1691.95 1830.22 1691.47 1830.25 1691.09 1830.32 1690.68 1830.36 1690.33 1830.39 1689.99 1830.42 1689.65 1830.49 1689.34 1830.53 1689.06 1830.63 1688.14 1830.7 1687.62 1830.7 1687.62L1824.57 1687.62C1824.4 1685.87 1824.26 1684.12 1824.16 1682.37 1824.09 1681.58 1824.06 1680.75 1824.06 1679.93 1824.02 1679.28 1823.99 1678.63 1823.99 1677.97 1823.92 1676.02 1823.96 1674.02 1823.99 1672.03 1823.99 1670.73 1824.09 1669.39 1824.13 1668.05 1824.16 1666.92 1824.23 1665.78 1824.3 1664.65 1824.3 1664.03 1824.37 1663.42 1824.4 1662.8L1824.4 1662.8C1824.64 1659.57 1824.95 1656.38 1825.37 1653.18 1825.47 1652.12 1825.64 1651.05 1825.78 1650.02 1825.92 1648.96 1826.09 1647.93 1826.23 1646.87 1826.54 1644.81 1826.88 1642.75 1827.22 1640.72 1827.57 1638.69 1827.95 1636.7 1828.33 1634.75 1828.91 1631.79 1829.53 1628.94 1830.15 1626.2 1830.36 1625.3 1830.56 1624.41 1830.77 1623.52 1831.18 1621.73 1831.59 1620.02 1832.04 1618.37 1832.08 1618.23 1832.11 1618.09 1832.14 1617.96 1832.52 1616.44 1832.94 1614.97 1833.28 1613.63 1833.28 1613.63 1833.28 1613.56 1833.28 1613.56 1833.69 1612.08 1834.11 1610.64 1834.45 1609.3 1835.83 1604.5 1837.03 1600.68 1837.86 1598.14 1837.96 1597.77 1838.06 1597.46 1838.17 1597.15 1838.37 1596.56 1838.51 1596.12 1838.61 1595.74 1838.79 1595.33 1838.85 1595.09 1838.89 1594.95 1838.89 1594.95 1838.89 1594.93 1838.89 1594.88 1838.89 1594.88 1838.92 1594.81 1838.92 1594.81L1832.28 1594.81 1858.78 1485.25C1858.78 1485.25 1956.39 1453.7 1999.85 1456.13 2001.43 1456.2 2002.98 1456.34 2004.43 1456.55 2005.15 1456.62 2005.87 1456.75 2006.53 1456.86 2007.73 1457.06 2008.87 1457.3 2009.97 1457.61 2011.51 1457.99 2012.93 1458.5 2014.13 1459.12 2014.92 1459.5 2015.64 1459.91 2016.3 1460.39 2016.71 1460.67 2017.09 1460.98 2017.4 1461.32 2017.74 1461.63 2018.05 1461.94 2018.33 1462.28 2018.88 1463 2019.36 1463.72 2019.67 1464.58 2019.84 1464.99 2019.94 1465.4 2020.08 1465.85 2020.74 1468.74 2021.73 1471.86 2023.04 1475.19 2023.28 1475.88 2023.56 1476.56 2023.9 1477.28 2024.49 1478.83 2025.21 1480.44 2025.97 1482.06 2026.38 1483.02 2026.86 1484.01 2027.34 1485.01 2028.68 1487.83 2030.16 1490.68 2031.75 1493.59 2038.8 1506.68 2047.82 1520.55 2055.63 1531.95 2058.55 1536.2 2061.3 1540.12 2063.75 1543.52 2064.4 1544.41 2064.99 1545.23 2065.57 1546.02 2066.6 1547.47 2067.57 1548.74 2068.43 1549.9 2069.29 1551.07 2070.11 1552.14 2070.77 1553.06L2070.77 1553.06C2071.08 1553.51 2071.38 1553.96 2071.66 1554.3 2071.8 1554.5 2071.94 1554.68 2072.07 1554.85 2072.52 1555.43 2072.9 1555.95 2073.17 1556.32 2073.48 1556.7 2073.69 1556.94 2073.76 1557.08 2073.76 1557.08 2073.83 1557.15 2073.83 1557.18L2060.62 1557.05C2082.64 1573.77 2152.35 1603.91 2152.35 1603.91L2145.88 1608.68C2210.43 1633.48 2443.48 1624.2 2446.57 1624.1L2443.1 1625.51 2433.91 1629.11 2433.98 1629.11C2436.25 1629.39 2438.52 1629.7 2440.76 1630.11 2450.87 1631.76 2460.47 1634.44 2469.42 1637.7 2471.42 1638.42 2473.34 1639.14 2475.23 1639.93 2478.09 1641.1 2480.91 1642.3 2483.6 1643.57 2515.42 1658.16 2535.79 1677.9 2535.79 1677.9L2518.83 1677.9C2531.7 1684.67 2556.82 1720.17 2579.97 1756.22 2590.4 1772.46 2600.45 1788.77 2608.81 1802.64 2621.81 1824.31 2630.79 1840 2630.79 1840Z" fill="#FFFFFF" fill-rule="evenodd" fill-opacity="0.301961"/><path d="M2002 1519.26 2002 1558.32C2002 1558.32 1992.52 1558.32 1992.52 1558.32 1992.52 1558.32 1980.62 1612.41 1984.69 1630.86 1984.69 1630.86 1979.48 1628.59 1975.79 1615.12 1975.79 1615.12 1952.59 1673.15 1934.34 1688.72L1933.24 1678.34C1933.24 1678.34 1906.66 1757.26 1970.79 1840L1939.41 1840C1922.69 1826.81 1904 1804.44 1887.55 1766.47 1845.38 1669.03 1855.41 1630.89 1855.41 1630.89L1846 1635.87 1859.93 1580.49 1849.97 1580.49C1849.97 1580.49 1850.76 1524.72 1879.52 1509.81 1908.31 1494.93 2002 1519.33 2002 1519.33Z" fill="#FFFFFF" fill-rule="evenodd" fill-opacity="0.6"/><path d="M2055.93 1544.68C2050.81 1552.4 2045.55 1556.34 2045.55 1556.34L2041.53 1551.34C2039.43 1565.81 2024.96 1587.34 2024.96 1587.34L2020.6 1582.71 2017.71 1591.97C1986.47 1592.9 1921.51 1569.82 1921.51 1569.82L1922.1 1577.19C1865.01 1548.87 1857 1494.76 1857 1494.76 1857 1494.76 1972.76 1492.01 2032.11 1493.38 2039.16 1510.87 2048.16 1529.42 2056 1544.68Z" fill="#000000" fill-rule="evenodd" fill-opacity="0.101961"/><path d="M2144.99 1839.97 1667.67 1839.97C1654.12 1818.77 1661.39 1789.59 1687.92 1781.46 1714.48 1773.3 1787.22 1779.88 1795.53 1779.88 1803.83 1779.88 1821.98 1744.25 1821.98 1744.25L1813.85 1744.25C1828.33 1718.04 1831.18 1687.83 1831.18 1687.83L1825.07 1687.83C1824.21 1679.87 1824.25 1671.4 1824.87 1663 1826.65 1671.23 1828.43 1676.68 1828.43 1676.68L1831.39 1666.91C1830.97 1681.97 1842.26 1713.59 1842.26 1713.59L1846.24 1701.55C1853.59 1748.94 1887.97 1766.61 1887.97 1766.61L1888.69 1758C1901.87 1767.77 1930.45 1772.71 1930.45 1772.71 1929.77 1752.03 1940.33 1727.89 1940.33 1727.89L1933.99 1727.89C1947.23 1688.76 1973.14 1672.81 1973.14 1672.81 1973.14 1672.81 2123.27 1697.54 2142.24 1750.97 2154.35 1785.02 2149.86 1819.49 2144.99 1840Z" fill="#000000" fill-rule="evenodd" fill-opacity="0.101961"/><path d="M2400 1719.84C2400 1719.84 2353.09 1717.3 2324.43 1719.84 2295.77 1722.38 2247.8 1751.04 2248.87 1775.2 2249.94 1799.32 2307.36 1815.91 2307.36 1815.91 2307.36 1815.91 2237.87 1800.35 2217.45 1801.72 2197.03 1803.1 2190.86 1840 2190.86 1840L2169.09 1840C2169.09 1840 2160.71 1798.63 2177.48 1784.65 2194.27 1770.66 2232.35 1784.65 2232.35 1784.65 2232.35 1784.65 2226.04 1732.97 2264.66 1709.57L2264.25 1719.84C2264.25 1719.84 2288.6 1698.26 2340.47 1699.02 2340.47 1699.02 2329.16 1707.3 2331.37 1706.54 2333.57 1705.79 2351.75 1702.18 2400 1719.81Z" fill="#000000" fill-rule="evenodd" fill-opacity="0.101961"/><path d="M2608.97 1802.67C2606.66 1816.67 2596.85 1829.67 2582.67 1840L2441.9 1840C2404.34 1813.75 2403 1784.1 2403 1784.1L2414.4 1789.18C2406.17 1760.39 2412.19 1720 2412.19 1720 2430.68 1739.15 2507.65 1755.96 2510.03 1756.48 2507.86 1754.9 2453.98 1715.68 2493.85 1738.36 2497.43 1740.42 2501.11 1742.24 2504.83 1743.88 2534.71 1756.89 2567.24 1756.89 2580.15 1756.27 2590.58 1772.5 2600.64 1788.8 2609 1802.67Z" fill="#000000" fill-rule="evenodd" fill-opacity="0.101961"/><path d="M1936 1346.32C1936 1346.32 1962.92 1271.62 2007.66 1251.08 2015.34 1247.58 2036.54 1352.91 2001.19 1398.85 1998.54 1402.28 1936 1346.32 1936 1346.32Z" fill="#EC6144" fill-rule="evenodd"/><path d="M2020.3 1339.73C2019.57 1348.86 2018.2 1357.89 2015.96 1366.47 2012.86 1378.66 2008.12 1389.85 2001.17 1398.85 1998.55 1402.28 1936 1346.32 1936 1346.32 1936 1346.32 1962.94 1271.58 2007.63 1251.08 2012.73 1248.75 2023.98 1295.13 2020.26 1339.69Z" fill="#FFFFFF" fill-rule="evenodd" fill-opacity="0.301961"/><path d="M2006.79 1260C2006.79 1260 1975.81 1320.77 2000.64 1353.77 2025 1386.15 2023.08 1282.9 2006.79 1260Z" fill="#FFFFFF" fill-rule="evenodd" fill-opacity="0.6"/><path d="M2020 1339.74C2019.28 1349.05 2017.91 1358.25 2015.68 1367 2000.06 1363.19 1980.22 1353.21 1961 1334.04 1961 1334.04 1985.63 1324.28 2020 1339.74Z" fill="#000000" fill-rule="evenodd" fill-opacity="0.101961"/><path d="M2107.9 1435.87C2102.54 1425.21 2062.14 1418.55 2062.14 1418.55 2062.14 1418.55 2061.42 1394.19 2050.89 1378.76 2040.26 1363.17 1995.16 1335.73 1968.08 1334.18 1940.97 1332.63 1883.44 1341.6 1883.44 1341.6L1843.43 1424.66C1843.43 1424.66 1843.39 1425.14 1843.32 1426.04 1843.32 1426.04 1836.51 1446.12 1837.03 1463.96L1840.06 1461.09C1840.06 1461.09 1837.78 1485.49 1846.76 1501.43L1849.9 1497.95C1849.9 1497.95 1856.98 1509.02 1865.96 1515.92 1876.73 1525.76 1893.59 1534.69 1922.87 1538.04 1957.14 1541.94 1998.94 1553.88 2024.33 1552.95 2081.34 1550.88 2084.3 1493.87 2084.3 1493.87 2114.92 1495.5 2113.27 1446.46 2107.97 1435.87Z" fill="#EC6144" fill-rule="evenodd"/><path d="M2084.3 1493.87C2084.3 1493.87 2081.34 1550.88 2024.33 1552.95 1998.94 1553.88 1957.17 1541.94 1922.9 1538.04 1893.59 1534.69 1876.73 1525.76 1865.96 1515.96 1857.02 1509.02 1849.9 1497.95 1849.9 1497.95L1846.8 1501.46C1837.82 1485.49 1840.06 1461.09 1840.06 1461.09L1837.03 1463.96C1836.51 1446.15 1843.32 1426.03 1843.32 1426.03 1843.39 1425.14 1843.46 1424.65 1843.46 1424.65L1883.48 1341.59C1883.48 1341.59 1884.54 1341.42 1886.43 1341.15 1889.32 1340.73 1894.31 1340.01 1900.44 1339.21 1919.53 1336.66 1950.39 1333.18 1968.11 1334.18 1995.19 1335.73 2040.26 1363.16 2050.93 1378.79 2058.36 1389.66 2060.91 1405.02 2061.77 1413.09 2062.11 1416.44 2062.18 1418.55 2062.18 1418.55 2062.18 1418.55 2102.6 1425.24 2107.97 1435.87 2113.27 1446.46 2114.92 1495.49 2084.3 1493.87Z" fill="#FFFFFF" fill-rule="evenodd" fill-opacity="0.301961"/><path d="M2100.54 1488.29C2096.58 1492.08 2091.28 1494.35 2084.3 1493.98 2084.3 1493.98 2082.34 1531.69 2050.83 1546.82 2043.64 1550.3 2034.94 1552.57 2024.34 1552.95 1998.95 1553.88 1957.19 1541.96 1922.93 1538.07 1893.62 1534.73 1876.77 1525.8 1866 1516.02 1867.62 1508.34 1870.99 1495.18 1876.53 1486.71L1868.06 1487.05C1868.06 1487.05 1864.11 1469.52 1905.59 1460.84 1947.49 1452.02 1978.8 1432.83 1988.57 1422.67 1998.4 1412.44 1993.55 1374.51 1987.67 1368.11 1981.75 1361.7 1969.58 1357.95 1972.6 1353.85 1975.7 1349.71 1994.21 1361.42 2000.88 1373.79 2007.45 1386.05 2020.59 1414.68 2025.58 1418.02 2025.58 1418.02 2048.25 1417.37 2062.18 1418.78 2062.18 1418.78 2102.6 1425.46 2107.97 1436.07 2112.06 1444.23 2113.99 1475.27 2100.54 1488.29Z" fill="#FFFFFF" fill-rule="evenodd" fill-opacity="0.6"/><path d="M1959.72 1412.26C1958.37 1419.86 1952.51 1425.04 1946.59 1423.82 1940.7 1422.61 1936.94 1415.46 1938.26 1407.85 1939.55 1400.21 1945.44 1394.93 1951.4 1396.18 1957.35 1397.4 1961.08 1404.62 1959.72 1412.3Z" fill="#263238" fill-rule="evenodd"/><path d="M2048.48 1399.16C2050.23 1406.47 2047.41 1413.48 2042.22 1414.79 2037.02 1416.09 2031.33 1411.26 2029.55 1403.95 2027.74 1396.61 2030.52 1389.56 2035.78 1388.22 2041.05 1386.88 2046.74 1391.81 2048.52 1399.16Z" fill="#263238" fill-rule="evenodd"/><path d="M2104.22 1435.84C2092.68 1427.18 2068.65 1430.5 2060.81 1442.93 2054.31 1453.24 2089.26 1467 2089.26 1467 2089.26 1467 2112.49 1442.04 2104.22 1435.84Z" fill="#263238" fill-rule="evenodd"/><path d="M2100 1488.03C2096.06 1491.79 2090.79 1494.04 2083.84 1493.66 2083.84 1493.66 2081.89 1531.02 2050.52 1546 2011.62 1541.94 1991 1508.57 1991 1508.57 2033.02 1516.08 2083.91 1488 2083.91 1488 2092.5 1492.57 2099.97 1488 2099.97 1488L2099.97 1488Z" fill="#000000" fill-rule="evenodd" fill-opacity="0.101961"/><path d="M2084 1488C2084 1488 2088.48 1491.76 2093 1490.86" stroke="#263238" stroke-width="2.37178" stroke-linecap="round" stroke-linejoin="round" stroke-miterlimit="10" fill="none" fill-rule="evenodd"/><path d="M2075 1494C2075 1494 2074.52 1529.97 2041.67 1530 2022.77 1530 2001 1511.6 2001 1511.6 2001 1511.6 2037.71 1509.2 2075 1494Z" fill="#263238" fill-rule="evenodd"/><path d="M2018 1511.74C2018 1511.74 2030.38 1531.46 2044.84 1545.66 2059.16 1559.72 2076.36 1538.27 2058.1 1501 2058.1 1501 2039.37 1507.71 2018 1511.74Z" fill="#EC6144" fill-rule="evenodd"/><path d="M2087.89 1454C2087.89 1454 2094.32 1477.65 2084.74 1487.65 2075.2 1497.58 2011.43 1516.88 1993.08 1509.26 1987.97 1507.12 1978.25 1504.47 1973 1493.75" stroke="#263238" stroke-width="2.37178" stroke-linecap="round" stroke-linejoin="round" stroke-miterlimit="10" fill="none" fill-rule="evenodd"/><path d="M2041 1506C2041 1506 2047.84 1514.19 2051 1525" stroke="#263238" stroke-width="2.37178" stroke-linecap="round" stroke-linejoin="round" stroke-miterlimit="10" fill="none" fill-rule="evenodd"/><path d="M1900 1340C1899.81 1346.85 1896.65 1352 1896.65 1352L1887 1341.91C1889.71 1341.5 1894.31 1340.78 1900 1340Z" fill="#000000" fill-rule="evenodd" fill-opacity="0.101961"/><path d="M1897 1352C1897 1352 1878.43 1279.85 1833.11 1254.49 1813.95 1243.77 1814.71 1411.27 1856.08 1444.56 1896.65 1477.24 1897 1352 1897 1352Z" fill="#EC6144" fill-rule="evenodd"/><path d="M1897 1352C1897 1352 1878.43 1279.85 1833.11 1254.49 1813.95 1243.77 1814.71 1411.27 1856.08 1444.56 1896.65 1477.24 1897 1352 1897 1352Z" fill="#FFFFFF" fill-rule="evenodd" fill-opacity="0.301961"/><path d="M1835.11 1262.32C1836.47 1256.86 1869.05 1322.94 1873.52 1361.49 1877.9 1399.08 1850.74 1424 1850.74 1424 1850.74 1424 1810.16 1361.9 1835.11 1262.32Z" fill="#FFFFFF" fill-rule="evenodd" fill-opacity="0.6"/><path d="M2060 1476.5C2060 1477.32 2059.1 1478 2058 1478 2056.9 1478 2056 1477.32 2056 1476.5 2056 1475.68 2056.9 1475 2058 1475 2059.1 1475 2060 1475.68 2060 1476.5Z" fill="#000000" fill-rule="evenodd" fill-opacity="0.2"/><path d="M2101.54 1483.82C2101.08 1484.62 2100.46 1485.16 2100.16 1484.96 2099.86 1484.79 2099.99 1483.99 2100.46 1483.18 2100.92 1482.38 2101.54 1481.84 2101.84 1482.04 2102.14 1482.21 2102.01 1483.01 2101.54 1483.82Z" fill="#000000" fill-rule="evenodd" fill-opacity="0.2"/><path d="M2108.98 1467.57C2108.9 1468.41 2108.6 1469.03 2108.35 1469 2108.1 1468.97 2107.94 1468.26 2108.02 1467.43 2108.1 1466.59 2108.4 1465.97 2108.65 1466 2108.9 1466.03 2109.06 1466.74 2108.98 1467.57Z" fill="#000000" fill-rule="evenodd" fill-opacity="0.2"/><path d="M2100.96 1473.1C2100.81 1474.21 2100.2 1475.04 2099.7 1475 2099.19 1474.96 2098.89 1474.01 2099.04 1472.9 2099.19 1471.79 2099.8 1470.96 2100.3 1471 2100.81 1471.04 2101.11 1471.99 2100.96 1473.1Z" fill="#000000" fill-rule="evenodd" fill-opacity="0.2"/><path d="M2050 1488C2050 1489.1 2049.32 1490 2048.5 1490 2047.68 1490 2047 1489.1 2047 1488 2047 1486.9 2047.68 1486 2048.5 1486 2049.32 1486 2050 1486.9 2050 1488Z" fill="#000000" fill-rule="evenodd" fill-opacity="0.2"/><path d="M2043 1473C2043 1474.1 2042.1 1475 2041 1475 2039.9 1475 2039 1474.1 2039 1473 2039 1471.9 2039.9 1471 2041 1471 2042.1 1471 2043 1471.9 2043 1473Z" fill="#000000" fill-rule="evenodd" fill-opacity="0.2"/><path d="M2033 1485.5C2033 1486.33 2032.33 1487 2031.5 1487 2030.67 1487 2030 1486.33 2030 1485.5 2030 1484.67 2030.67 1484 2031.5 1484 2032.33 1484 2033 1484.67 2033 1485.5Z" fill="#000000" fill-rule="evenodd" fill-opacity="0.2"/><path d="M2022 1493.5C2022 1494.32 2021.32 1495 2020.5 1495 2019.68 1495 2019 1494.32 2019 1493.5 2019 1492.68 2019.68 1492 2020.5 1492 2021.32 1492 2022 1492.68 2022 1493.5Z" fill="#000000" fill-rule="evenodd" fill-opacity="0.2"/><path d="M2006 1486.5C2006 1487.33 2005.33 1488 2004.5 1488 2003.67 1488 2003 1487.33 2003 1486.5 2003 1485.67 2003.67 1485 2004.5 1485 2005.33 1485 2006 1485.67 2006 1486.5Z" fill="#000000" fill-rule="evenodd" fill-opacity="0.2"/><path d="M2021 1476.5C2021 1477.32 2020.1 1478 2019 1478 2017.9 1478 2017 1477.32 2017 1476.5 2017 1475.68 2017.9 1475 2019 1475 2020.1 1475 2021 1475.68 2021 1476.5Z" fill="#000000" fill-rule="evenodd" fill-opacity="0.2"/><path d="M2062 1418.6C2062 1418.6 2019.68 1415.68 2001 1422 2001 1422 2017.87 1408.04 2061.59 1413.11 2061.93 1416.48 2062 1418.6 2062 1418.6Z" fill="#000000" fill-rule="evenodd" fill-opacity="0.101961"/><path d="M1978.98 1657.95C1978.98 1657.95 1948.77 1696.35 1945.95 1723.02L1952.79 1723.02C1952.79 1723.02 1942.41 1748.92 1945.61 1780.56 1945.61 1780.56 1921.59 1781.66 1889.05 1779.81 1834.03 1776.65 1816.02 1798.17 1833.34 1840L2088.46 1840C2088.46 1840 2110.42 1820.06 2110 1806.88L2111.86 1824.21C2111.86 1824.21 2143.58 1789.18 2142.99 1758.67 2142.41 1728.16 2091.34 1578.61 1979.01 1657.92Z" fill="#EC6144" fill-rule="evenodd"/><path d="M2142.97 1758.66C2143.55 1789.17 2111.83 1824.21 2111.83 1824.21L2109.98 1806.88C2110.43 1820.06 2088.43 1840 2088.43 1840L1833.33 1840C1816.04 1798.13 1834.02 1776.64 1889.03 1779.8 1921.57 1781.65 1945.59 1780.55 1945.59 1780.55 1942.43 1748.91 1952.81 1723 1952.81 1723L1945.97 1723C1948.82 1696.33 1979.02 1657.92 1979.02 1657.92 2091.35 1578.6 2142.42 1728.18 2143 1758.69Z" fill="#FFFFFF" fill-rule="evenodd" fill-opacity="0.301961"/><path d="M1946 1780.33C1978.76 1779.41 1999.52 1791.7 2002 1804 2002 1804 1995.9 1784.5 1989.69 1780.29L1999.41 1780.29C1999.41 1780.29 1988 1769.93 1968 1770 1953.1 1770.07 1946 1780.33 1946 1780.33Z" fill="#000000" fill-rule="evenodd" fill-opacity="0.101961"/><path d="M1860 1840 1851.34 1840C1851.34 1840 1836.02 1814.29 1849.64 1800 1849.57 1801.5 1848.29 1827.21 1860 1840Z" fill="#000000" fill-rule="evenodd" fill-opacity="0.101961"/><path d="M1890 1840 1878.13 1840C1877.44 1838.61 1866.01 1816.02 1876.22 1804 1876.22 1804 1876.43 1827.35 1890 1840Z" fill="#000000" fill-rule="evenodd" fill-opacity="0.101961"/><path d="M1925.16 1840 1915 1840C1915 1840 1922.59 1831.9 1919.16 1826 1919.16 1826 1928.85 1827.75 1925.16 1840Z" fill="#000000" fill-rule="evenodd" fill-opacity="0.101961"/><path d="M2578.69 1764.7C2580.12 1764.59 2581.56 1764.32 2583 1764 2581.09 1764.97 2579.06 1765.18 2577 1764.86 2577.56 1764.86 2578.12 1764.75 2578.69 1764.75Z" fill="#000000" fill-rule="evenodd" fill-opacity="0.101961"/><path d="M2713.71 1798.28 2701.76 1790.16C2701.76 1790.16 2714.78 1827.48 2677.42 1840L2464.97 1840C2462.22 1838.69 2429.44 1822.32 2423.86 1786.69 2423.86 1786.69 2427.75 1791.75 2438.8 1793.02 2438.8 1793.02 2411.74 1755.94 2424.34 1707 2424.34 1707 2455.36 1733.83 2492.37 1743.87L2487.83 1727.77C2487.83 1727.77 2492.48 1731.83 2500.33 1737.23 2501.05 1737.75 2501.81 1738.26 2502.56 1738.75 2506.04 1741.08 2510.04 1743.63 2514.48 1746.17 2515.3 1746.69 2516.16 1747.17 2517.06 1747.62 2517.57 1747.89 2518.13 1748.2 2518.68 1748.51 2519.5 1748.96 2520.36 1749.44 2521.22 1749.85 2522.67 1750.61 2524.15 1751.37 2525.67 1752.06 2526.87 1752.64 2528.04 1753.19 2529.25 1753.74 2530.14 1754.15 2531.1 1754.6 2532.03 1754.98 2533.82 1755.74 2535.61 1756.49 2537.51 1757.21 2538.58 1757.63 2539.68 1758.01 2540.78 1758.38 2541.71 1758.73 2542.64 1759.04 2543.57 1759.31 2543.77 1759.38 2543.98 1759.45 2544.19 1759.55 2544.98 1759.79 2545.81 1760.07 2546.6 1760.31 2546.67 1760.31 2546.74 1760.31 2546.8 1760.38 2550.66 1761.51 2554.65 1762.51 2558.68 1763.2 2559.51 1763.34 2560.33 1763.47 2561.16 1763.61 2561.54 1763.68 2561.95 1763.75 2562.33 1763.78 2563.09 1763.89 2563.88 1763.99 2564.64 1764.06 2565.19 1764.13 2565.74 1764.2 2566.29 1764.23 2567.29 1764.33 2568.25 1764.4 2569.22 1764.47 2571.73 1764.64 2574.24 1764.68 2576.79 1764.54 2577.41 1764.54 2578.03 1764.47 2578.65 1764.47 2580.23 1764.4 2581.82 1764.23 2583.4 1764.02L2569.01 1739.78C2578.72 1728.5 2594.28 1717.15 2618.17 1714.57L2613.97 1728.67C2613.97 1728.67 2657.39 1718.59 2687.99 1744.45 2718.63 1770.32 2713.71 1798.28 2713.71 1798.28Z" fill="#EC6144" fill-rule="evenodd"/><path d="M2713.71 1798.28 2701.76 1790.16C2701.76 1790.16 2714.78 1827.48 2677.42 1840L2464.97 1840C2462.22 1838.69 2429.44 1822.32 2423.86 1786.69 2423.86 1786.69 2427.75 1791.75 2438.8 1793.02 2438.8 1793.02 2411.74 1755.94 2424.34 1707 2424.34 1707 2455.36 1733.83 2492.37 1743.87L2487.83 1727.77C2487.83 1727.77 2492.48 1731.83 2500.33 1737.23 2501.05 1737.71 2501.77 1738.23 2502.56 1738.75 2506.04 1741.08 2510.04 1743.63 2514.48 1746.17 2515.3 1746.66 2516.16 1747.14 2517.06 1747.62 2517.57 1747.89 2518.13 1748.2 2518.68 1748.51 2519.5 1748.96 2520.36 1749.41 2521.22 1749.85 2522.67 1750.61 2524.15 1751.37 2525.67 1752.06 2526.87 1752.64 2528.04 1753.19 2529.25 1753.74 2530.14 1754.15 2531.1 1754.57 2532.03 1754.98 2533.82 1755.74 2535.65 1756.49 2537.51 1757.21 2538.58 1757.63 2539.68 1758.01 2540.78 1758.38 2541.71 1758.73 2542.64 1759.04 2543.57 1759.31 2543.77 1759.38 2543.98 1759.45 2544.19 1759.55 2544.98 1759.79 2545.81 1760.03 2546.6 1760.31 2546.67 1760.31 2546.74 1760.31 2546.8 1760.38 2550.66 1761.51 2554.65 1762.51 2558.68 1763.2 2559.51 1763.34 2560.33 1763.47 2561.16 1763.61 2561.54 1763.68 2561.95 1763.75 2562.33 1763.78 2563.09 1763.89 2563.88 1764.02 2564.64 1764.06 2565.19 1764.13 2565.74 1764.2 2566.29 1764.23 2567.25 1764.33 2568.25 1764.4 2569.22 1764.47 2571.73 1764.64 2574.24 1764.68 2576.79 1764.54 2577.41 1764.54 2578.03 1764.47 2578.65 1764.47 2580.23 1764.4 2581.82 1764.23 2583.4 1764.02L2569.01 1739.78C2578.72 1728.5 2594.28 1717.15 2618.17 1714.57L2613.97 1728.67C2613.97 1728.67 2657.39 1718.59 2687.99 1744.45 2718.63 1770.32 2713.71 1798.28 2713.71 1798.28Z" fill="#FFFFFF" fill-rule="evenodd" fill-opacity="0.301961"/><path d="M2612.19 1747.74C2602.83 1762.06 2583.43 1764 2583.43 1764L2569 1739.61C2592.61 1730.44 2606.94 1741.41 2606.94 1741.41 2610.08 1738.57 2610.74 1734 2610.74 1734 2610.74 1734 2621.51 1733.42 2612.23 1747.74Z" fill="#000000" fill-rule="evenodd" fill-opacity="0.101961"/><path d="M2576 1811.94C2576 1811.94 2567.23 1825.9 2515.36 1820.22 2515.36 1820.22 2522.86 1826.45 2535.14 1829.3 2535.14 1829.3 2529.43 1835.84 2514.7 1840L2464.93 1840C2462.18 1838.69 2429.43 1822.32 2423.86 1786.69 2423.86 1786.69 2427.75 1791.75 2438.79 1793.02 2438.79 1793.02 2411.75 1755.94 2424.34 1707 2424.34 1707 2455.33 1733.83 2492.31 1743.87L2487.77 1727.77C2487.77 1727.77 2514.08 1750.71 2546.66 1760.38 2550.58 1764.85 2556.15 1769.67 2563.89 1773.52 2563.89 1773.52 2541.22 1774.69 2529.84 1769.46 2529.84 1769.46 2534.65 1798.56 2576 1811.94Z" fill="#FFFFFF" fill-rule="evenodd" fill-opacity="0.6"/><path d="M2312.46 1469.03C2312.46 1469.03 2362.11 1498.54 2363.31 1518.15 2363.31 1518.15 2538.55 1616.91 2481.62 1840L2223.22 1840C2223.22 1840 2188.07 1759.73 2212.83 1708.38L2210.6 1708.79C2218.87 1696.18 2225.66 1698.11 2225.66 1698.11 2225.66 1698.11 2233.65 1603.13 2230.53 1575.65 2227.37 1548.17 2212.87 1488.24 2212.87 1488.24L2312.52 1469Z" fill="#263238" fill-rule="evenodd"/><path d="M2493.89 1755.47C2493.89 1757.56 2493.82 1759.66 2493.78 1761.82 2493.47 1774.15 2492.41 1787 2490.45 1800.36 2490.17 1802.22 2489.9 1804.04 2489.62 1805.93 2487.87 1816.95 2485.49 1828.32 2482.5 1840L2223.26 1840C2223.26 1840 2220.03 1832.65 2216.24 1821.01 2212.6 1809.84 2208.4 1794.69 2206.02 1778.28 2202.58 1755.12 2202.72 1729.33 2212.87 1708.38L2210.63 1708.79C2216.04 1700.65 2220.75 1698.55 2223.43 1698.11 2224.91 1697.87 2225.74 1698.11 2225.74 1698.11 2225.74 1698.11 2226.19 1692.92 2226.81 1684.61 2228.87 1657.4 2233.03 1596.71 2230.62 1575.65 2229.8 1568.47 2228.18 1558.99 2226.22 1548.96 2220.82 1520.83 2212.91 1488.24 2212.91 1488.24L2312.89 1469C2312.89 1469 2317.01 1471.44 2322.9 1475.39 2336.38 1484.42 2359.19 1501.29 2363.25 1514.82 2363.63 1515.95 2363.84 1517.05 2363.87 1518.12 2363.87 1518.12 2365.66 1519.11 2368.79 1521.14 2373.75 1524.34 2382.11 1530.11 2392.19 1538.45 2394.97 1540.82 2397.93 1543.33 2400.96 1546.08 2408.84 1553.19 2417.37 1561.67 2426.04 1571.6 2428.83 1574.83 2431.65 1578.23 2434.47 1581.77 2434.47 1581.77 2434.47 1581.77 2434.54 1581.77 2441.7 1590.8 2448.75 1600.83 2455.39 1611.86L2455.39 1611.86C2458.07 1616.36 2460.65 1620.96 2463.16 1625.77 2469.46 1637.79 2475.14 1650.84 2479.89 1664.99L2479.89 1664.99C2481.02 1668.36 2482.09 1671.76 2483.05 1675.2 2486.25 1686.15 2488.86 1697.73 2490.72 1709.92 2491.17 1712.77 2491.55 1715.62 2491.89 1718.51 2493.34 1730.29 2494.09 1742.55 2493.99 1755.43Z" fill="#FFFFFF" fill-rule="evenodd" fill-opacity="0.2"/><path d="M2262 1508.21C2262 1508.21 2244.04 1523.41 2242.54 1533.03L2238.43 1530.73C2238.43 1530.73 2239.72 1557.78 2237.38 1572.95L2234.6 1565.43C2234.6 1565.43 2234.9 1582.08 2231.71 1599 2231.54 1589.9 2231.17 1581.73 2230.49 1575.66 2227.36 1548.2 2213 1488.3 2213 1488.3L2224.78 1486C2245.7 1497.05 2262 1508.21 2262 1508.21Z" fill="#FFFFFF" fill-rule="evenodd" fill-opacity="0.2"/><path d="M2322 1475.36C2318.08 1487.69 2307.34 1514.57 2285.59 1524.36L2285.59 1520.82C2285.59 1520.82 2268.81 1527.42 2253.85 1539.55L2255.38 1530.68C2255.38 1530.68 2239.39 1536.39 2226.19 1549 2220.84 1520.86 2213 1488.24 2213 1488.24L2312.08 1469C2312.08 1469 2316.17 1471.44 2322 1475.39Z" fill="#000000" fill-rule="evenodd" fill-opacity="0.2"/><path d="M2225 1699 2223 1699C2224.28 1696.75 2225 1699 2225 1699Z" fill="#000000" fill-rule="evenodd" fill-opacity="0.2"/><path d="M2280 1743.97C2280 1743.97 2256.25 1705.88 2225 1698.26 2225 1698.26 2225.45 1693.06 2226.08 1684.72 2232.82 1683.82 2238.1 1684.58 2238.1 1684.58L2246.27 1654.49C2254.82 1649.53 2267.78 1624.16 2267.78 1624.16L2267.78 1631.47C2278.53 1623.26 2273.92 1594 2273.92 1594 2280.77 1603.86 2276.4 1631.47 2276.4 1631.47L2273.92 1624.23C2273.92 1624.23 2274.76 1635.12 2262.37 1644.49 2249.97 1653.9 2252.52 1678.51 2252.52 1678.51 2269.59 1698.33 2280 1744 2280 1744Z" fill="#000000" fill-rule="evenodd" fill-opacity="0.2"/><path d="M2237 1599.14C2240.17 1600.18 2243.14 1599.52 2245.78 1598.11 2248.47 1596.7 2250.98 1594.85 2253.63 1593.06 2256.31 1591.31 2259.1 1589.55 2262.24 1588.38 2265.34 1587.22 2268.76 1586.63 2272 1587.25 2265.55 1588.38 2260.57 1591.86 2255.3 1595.43 2252.65 1597.15 2249.93 1599.04 2246.73 1600.18 2245.92 1600.45 2245.12 1600.73 2244.25 1600.83 2243.41 1601 2242.54 1601.04 2241.67 1600.97 2240.8 1600.97 2239.96 1600.59 2239.2 1600.38 2238.43 1600.07 2237.73 1599.56 2237.07 1599.14Z" fill-rule="evenodd"/><path d="M2242 1577.89C2245.04 1577.1 2247.06 1574.86 2249.11 1572.65 2251.12 1570.37 2253.1 1567.94 2255.26 1565.66 2257.48 1563.41 2259.87 1561.2 2262.74 1559.71 2265.58 1558.17 2268.99 1557.49 2272 1558.42 2268.89 1558.78 2266.23 1560.03 2263.87 1561.74 2261.51 1563.48 2259.36 1565.59 2257.27 1567.8 2255.12 1569.97 2253.04 1572.33 2250.61 1574.36 2248.25 1576.36 2245.18 1578.42 2242 1577.92Z" fill-rule="evenodd"/><path d="M2268 1602.03C2263.94 1606.9 2259.78 1611.53 2255.05 1615.74 2252.65 1617.83 2250.14 1619.81 2247.32 1621.44 2244.57 1623.01 2241.25 1624.43 2238 1623.88 2241.14 1623.18 2243.58 1621.37 2246.05 1619.53 2248.45 1617.65 2250.78 1615.6 2253.07 1613.55 2255.44 1611.53 2257.73 1609.41 2260.2 1607.46 2262.64 1605.48 2265.18 1603.53 2268 1602Z" fill-rule="evenodd"/><path d="M2234 1712C2229.54 1714.91 2227.29 1719.89 2225 1724.52 2222.82 1729.26 2220.98 1734.2 2219.38 1739.18 2217.75 1744.16 2216.32 1749.25 2215.06 1754.37 2213.86 1759.49 2212.81 1764.67 2212.33 1770 2211.68 1764.67 2212.06 1759.24 2212.87 1753.92 2213.69 1748.59 2215.02 1743.37 2216.66 1738.29 2218.36 1733.2 2220.37 1728.19 2223.03 1723.48 2223.68 1722.31 2224.43 1721.17 2225.14 1720.02 2225.92 1718.92 2226.74 1717.84 2227.56 1716.77 2229.43 1714.84 2231.38 1712.76 2233.97 1712Z" fill-rule="evenodd"/><path d="M2225.04 1799C2225.67 1793.33 2226.76 1787.7 2228.24 1782.17 2229.72 1776.64 2231.58 1771.2 2233.84 1765.88 2236.19 1760.62 2238.91 1755.42 2242.57 1750.81 2246.12 1746.26 2251.02 1741.92 2257 1741 2251.37 1743 2247.6 1747.52 2244.43 1752.06 2241.3 1756.75 2238.8 1761.8 2236.55 1766.96 2234.26 1772.12 2232.32 1777.45 2230.42 1782.78 2228.56 1788.14 2226.76 1793.54 2225 1798.97Z" fill-rule="evenodd"/><path d="M2247 1821C2248.64 1812.1 2252.16 1803.61 2256.99 1796 2259.47 1792.25 2262.28 1788.68 2265.64 1785.66 2268.99 1782.68 2272.88 1780.33 2277 1779 2273.31 1781.38 2270.09 1784.22 2267.15 1787.34 2264.26 1790.53 2261.68 1794 2259.34 1797.65 2256.96 1801.26 2254.84 1805.12 2252.8 1809.01 2250.82 1812.94 2248.84 1816.9 2247 1821Z" fill-rule="evenodd"/><path d="M2314.07 1486C2333.55 1506.81 2350.94 1529.58 2366.58 1553.48 2374.33 1565.48 2381.6 1577.82 2388.25 1590.5 2394.77 1603.26 2400.91 1616.25 2405.84 1629.73 2416.07 1656.61 2421.52 1685.17 2423.34 1713.73 2424.33 1728.03 2424.13 1742.36 2423.27 1756.62 2422.2 1770.85 2420.66 1785.08 2417.51 1799 2419.36 1784.87 2420.35 1770.71 2420.46 1756.52 2420.63 1742.36 2420.22 1728.16 2418.84 1714.11 2417.37 1700.05 2415.62 1686.03 2412.4 1672.28 2411.74 1668.81 2410.82 1665.42 2409.93 1661.99 2409 1658.6 2408.31 1655.13 2407.18 1651.77 2405.06 1645.05 2403.07 1638.3 2400.39 1631.75 2390.65 1605.28 2377.28 1580.18 2362.73 1555.88 2347.85 1531.77 2331.77 1508.29 2314 1486.03Z" fill-rule="evenodd"/><path d="M2322.97 1514C2317.18 1516.7 2312.18 1520.16 2308.19 1524.47 2304.19 1528.78 2300.98 1533.8 2298.37 1539.21 2295.64 1544.54 2293.44 1550.26 2291.06 1555.97 2288.72 1561.68 2286.41 1567.6 2283 1573 2284.14 1566.78 2285.2 1560.69 2286.79 1554.6 2288.31 1548.51 2290.34 1542.46 2293.2 1536.64 2296.13 1530.93 2299.95 1525.36 2305.15 1521.22 2310.25 1517.01 2316.63 1514.38 2323 1514Z" fill-rule="evenodd"/><path d="M2334.93 1536.05C2331.05 1536.98 2327.94 1539.17 2325.11 1541.64 2322.27 1544.11 2319.79 1546.96 2317.41 1549.91 2312.73 1555.81 2308.57 1562.15 2304.76 1568.71 2300.87 1575.22 2297.38 1581.98 2294.09 1588.84 2290.84 1595.73 2287.8 1602.73 2285 1610 2285.42 1602.21 2287.31 1594.53 2289.86 1587.16 2292.38 1579.75 2295.77 1572.65 2299.72 1565.82 2303.78 1559.1 2308.36 1552.59 2314.06 1546.93 2316.89 1544.08 2320 1541.51 2323.46 1539.38 2326.92 1537.36 2330.94 1535.68 2335 1536.05Z" fill-rule="evenodd"/><path d="M2354 1565.03C2350.87 1565.72 2348.4 1567.79 2346.03 1569.83 2343.66 1571.86 2341.53 1574.17 2339.47 1576.51 2335.31 1581.2 2331.57 1586.26 2328 1591.4 2324.46 1596.57 2321.06 1601.84 2317.97 1607.32 2314.81 1612.73 2311.89 1618.28 2309.24 1623.93L2305.05 1632.62C2303.51 1635.48 2301.89 1638.34 2300.14 1641.03 2296.57 1646.44 2292.79 1651.57 2288.94 1656.6 2285.17 1661.67 2281.39 1666.67 2278.5 1672.15 2275.55 1677.59 2273.59 1683.59 2273.42 1690 2272.29 1683.66 2273.56 1676.97 2275.93 1670.94 2278.37 1664.88 2281.77 1659.33 2285.27 1653.99 2288.7 1648.61 2292.38 1643.47 2295.54 1638.1L2297.91 1634.07 2300.11 1629.96 2304.09 1621.42C2309.66 1609.77 2316.39 1598.74 2324.43 1588.68 2328.41 1583.64 2332.74 1578.85 2337.48 1574.48 2339.92 1572.34 2342.36 1570.24 2345.1 1568.52 2347.78 1566.79 2350.77 1565.07 2354 1565Z" fill-rule="evenodd"/><path d="M2373 1599C2366.54 1600.72 2360.77 1604.02 2355.56 1607.87 2350.31 1611.71 2345.71 1616.32 2341.57 1621.27 2337.39 1626.18 2333.9 1631.68 2330.62 1637.24L2326.02 1645.87C2324.47 1648.82 2322.95 1651.81 2321.29 1654.73 2318.01 1660.54 2314.41 1666.21 2310.75 1671.77L2299.49 1688.13C2295.83 1693.56 2292.31 1699.06 2289.78 1705 2287.16 1710.91 2285.78 1717.37 2285.43 1724 2284.5 1717.44 2285.09 1710.53 2287.09 1704.04 2289.09 1697.54 2292.27 1691.5 2295.66 1685.72 2302.5 1674.25 2309.92 1663.42 2316.25 1651.91 2317.9 1649.1 2319.42 1646.21 2320.98 1643.32 2322.5 1640.47 2324.22 1637.41 2325.88 1634.53 2329.58 1628.86 2333.34 1623.19 2338.18 1618.34 2342.84 1613.4 2348.13 1609.03 2354 1605.56 2359.87 1602.2 2366.3 1599.52 2373 1599.03Z" fill-rule="evenodd"/><path d="M2391 1647C2379.24 1649.81 2368.09 1654.52 2358.32 1661 2353.51 1664.33 2348.9 1667.93 2345.08 1672.29 2344.05 1673.29 2343.22 1674.49 2342.29 1675.59 2341.4 1676.69 2340.47 1677.82 2339.51 1679.05 2337.65 1681.52 2335.69 1683.86 2333.66 1686.19 2325.51 1695.36 2316.57 1703.52 2307.97 1711.83 2303.74 1716.02 2299.5 1720.24 2295.96 1724.94 2292.42 1729.61 2289.5 1734.89 2289.29 1741 2288.15 1734.93 2290.53 1728.65 2293.59 1723.36 2296.75 1718.04 2300.64 1713.24 2304.7 1708.71 2312.78 1699.61 2321.52 1691.34 2329.33 1682.38 2331.29 1680.19 2333.21 1677.92 2335.04 1675.59 2335.93 1674.46 2336.93 1673.25 2337.96 1672.05 2338.99 1670.89 2339.92 1669.58 2341.09 1668.55 2345.46 1664.02 2350.52 1660.25 2355.92 1657.19 2366.72 1651.05 2378.79 1647.48 2390.93 1647Z" fill-rule="evenodd"/><path d="M2398 1690.03C2387.77 1693.05 2377.85 1696.75 2368.72 1701.72 2364.21 1704.25 2359.83 1707 2355.96 1710.29 2354.11 1712 2352.2 1713.64 2350.63 1715.56 2349.8 1716.42 2348.92 1717.48 2348.03 1718.58 2347.1 1719.61 2346.18 1720.63 2345.19 1721.63 2337.29 1729.41 2328.08 1735.16 2319.05 1740.71 2314.54 1743.52 2310.02 1746.2 2305.82 1749.28 2303.7 1750.79 2301.68 1752.47 2299.9 1754.32 2298.12 1756.17 2296.65 1758.36 2296 1761 2296.03 1758.29 2297.13 1755.62 2298.67 1753.36 2300.17 1751.06 2302.09 1749.04 2304 1747.12 2307.97 1743.39 2312.25 1740.13 2316.56 1736.98 2325.11 1730.67 2333.9 1724.78 2341.15 1717.55 2342.07 1716.66 2342.93 1715.73 2343.78 1714.81 2344.57 1713.88 2345.43 1712.92 2346.45 1711.83 2348.3 1709.67 2350.42 1707.85 2352.58 1706.04 2357.02 1702.68 2361.78 1699.87 2366.77 1697.68 2376.72 1693.26 2387.33 1690.69 2398 1690Z" fill-rule="evenodd"/><path d="M2401 1740.94C2391.75 1740.77 2382.77 1742.15 2374.04 1744.24 2365.3 1746.37 2357.04 1749.64 2348.58 1753.19 2340.16 1756.59 2331.76 1760.14 2323.54 1763.95 2319.45 1765.87 2315.39 1767.86 2311.51 1770.13 2309.55 1771.24 2307.69 1772.45 2305.93 1773.84 2305.04 1774.51 2304.25 1775.29 2303.53 1776.1 2302.8 1776.91 2302.19 1777.89 2302.01 1779 2301.84 1776.64 2303.35 1774.48 2304.8 1772.72 2306.31 1770.9 2308.07 1769.35 2309.86 1767.86 2313.5 1764.96 2317.39 1762.4 2321.41 1760.07 2329.43 1755.38 2337.82 1751.53 2346.35 1747.99 2350.68 1746.3 2354.88 1744.62 2359.38 1743.16 2363.89 1741.81 2368.43 1740.6 2373.11 1739.96 2382.36 1738.61 2391.99 1738.47 2400.97 1740.94Z" fill-rule="evenodd"/><path d="M2401 1779.87C2393.07 1780.57 2385.2 1781.04 2377.34 1781.55 2369.51 1782.12 2361.68 1782.55 2353.92 1783.36 2350.04 1783.66 2346.16 1784.13 2342.31 1784.64 2338.46 1785.07 2334.65 1785.74 2330.84 1786.45 2323.29 1787.99 2315.73 1789.8 2309 1794 2311.54 1790.95 2314.94 1788.63 2318.48 1786.68 2322.08 1784.84 2325.86 1783.36 2329.71 1782.19 2337.43 1779.77 2345.4 1778.56 2353.33 1777.75 2361.3 1777.05 2369.27 1776.81 2377.24 1777.15 2385.17 1777.49 2393.14 1778.22 2400.93 1779.84Z" fill-rule="evenodd"/><path d="M2368 1521C2367.04 1520.57 2366.05 1520.18 2365.03 1519.79 2359.82 1517.79 2354.57 1515.83 2349 1514.23 2353.55 1513.71 2358.14 1514.13 2362.66 1514.98 2363.02 1516.06 2363.22 1517.11 2363.25 1518.12 2363.25 1518.12 2364.97 1519.07 2367.97 1521Z" fill-rule="evenodd"/><path d="M2401 1545.97C2399.02 1545.19 2397.01 1544.44 2395 1543.69 2385.98 1540.47 2376.71 1537.68 2367 1536.26 2375.4 1535.47 2383.86 1536.56 2392.12 1538.46 2394.93 1540.81 2397.91 1543.28 2400.97 1546Z" fill-rule="evenodd"/><path d="M2433.97 1581.96C2430.34 1579.61 2426.61 1577.33 2422.85 1575.19 2412.69 1569.56 2402.22 1564.39 2391 1561 2396.85 1561.36 2402.63 1562.78 2408.28 1564.53 2413.95 1566.28 2419.46 1568.49 2424.83 1571.05 2425.11 1571.16 2425.35 1571.3 2425.62 1571.45 2428.39 1574.8 2431.2 1578.33 2434 1582Z" fill-rule="evenodd"/><path d="M2463 1626C2462.38 1625.37 2461.69 1624.75 2461.03 1624.12 2452.83 1616.41 2443.52 1610.05 2433.31 1605.26 2423.11 1600.43 2412.14 1597.13 2401 1594 2412.52 1594.76 2424.08 1596.88 2435.08 1601.09 2440.61 1603.07 2445.8 1605.99 2450.89 1608.98 2452.31 1609.95 2453.76 1610.92 2455.15 1611.93L2455.15 1611.93C2457.85 1616.48 2460.44 1621.14 2462.97 1626Z" fill-rule="evenodd"/><path d="M2482 1675 2476.49 1670.03C2474.35 1668.18 2471.97 1666.61 2469.73 1664.83 2467.56 1662.98 2465.04 1661.64 2462.66 1660.03 2460.32 1658.42 2457.8 1657.12 2455.29 1655.75 2445.23 1650.38 2434.45 1646.27 2423 1644 2434.69 1643.87 2446.42 1646.92 2457.22 1651.71 2464.87 1655.14 2472.18 1659.52 2478.84 1664.76L2478.84 1664.76C2479.96 1668.12 2481.01 1671.51 2481.97 1674.93Z" fill-rule="evenodd"/><path d="M2491 1718.97C2489.77 1717.73 2488.43 1716.59 2487.1 1715.45 2485.46 1714.04 2483.92 1712.53 2482.11 1711.36 2475.4 1705.95 2467.88 1701.72 2459.97 1698.13 2452.07 1694.62 2443.76 1691.87 2435 1690.15 2443.93 1689.49 2452.99 1691.08 2461.58 1693.97 2470.17 1696.86 2478.38 1701.16 2485.6 1706.81 2487.03 1707.98 2488.43 1709.15 2489.8 1710.39 2490.25 1713.25 2490.62 1716.11 2490.97 1719Z" fill-rule="evenodd"/><path d="M2493.93 1755.54C2493.93 1757.67 2493.86 1759.8 2493.83 1762L2492.83 1761.37C2491.18 1760.32 2489.49 1759.31 2487.77 1758.4 2486.05 1757.49 2484.37 1756.44 2482.61 1755.61L2477.39 1752.98 2471.99 1750.61C2468.41 1749.07 2464.73 1747.67 2461.01 1746.42 2453.55 1743.9 2445.95 1741.8 2438 1740.55 2446.01 1739.36 2454.24 1740.23 2462.22 1742.01 2470.2 1743.76 2477.94 1746.63 2485.23 1750.4 2488.19 1752.01 2491.14 1753.72 2494 1755.54Z" fill-rule="evenodd"/><path d="M2490 1800.27C2489.72 1802.18 2489.45 1804.05 2489.17 1806L2486.46 1804.69C2483.34 1803.13 2480.14 1801.68 2476.92 1800.41 2470.49 1797.58 2463.86 1795.31 2457.2 1792.91L2437 1786C2444.22 1785.93 2451.37 1786.96 2458.42 1788.48 2465.46 1790.04 2472.4 1792.16 2479.1 1794.96 2482.78 1796.59 2486.46 1798.32 2489.97 1800.34Z" fill-rule="evenodd"/><path d="M2458.97 1840 2451.21 1840 2445.32 1833.37C2441.82 1829.39 2438.29 1825.34 2435 1821 2439.85 1823.47 2444.25 1826.6 2448.44 1830.02 2452.18 1833.06 2455.74 1836.4 2459 1840Z" fill-rule="evenodd"/><path d="M2331.92 1422.05C2348.18 1382.06 2326.66 1338.19 2326.66 1338.19 2302.08 1346.4 2285.72 1360.64 2275.68 1372.24 2266.81 1371.08 2252.99 1369.57 2241.3 1369.5 2235.97 1358.31 2220.94 1332.49 2193.61 1327 2193.61 1327 2177.42 1376.54 2190.79 1403.86 2184.64 1412.03 2179.21 1420.2 2175.7 1426.41 2166.04 1443.61 2177.38 1467.54 2185.95 1480.89 2194.51 1494.25 2219.74 1510.96 2244.7 1513.61 2281.14 1517.52 2321.68 1491.33 2330.03 1476.6 2334.47 1468.77 2338.18 1445.12 2331.89 1422.05Z" fill="#263238" fill-rule="evenodd"/><path d="M2330 1476.59C2329.45 1477.58 2328.73 1478.65 2327.84 1479.75 2327.35 1480.4 2326.8 1481.05 2326.19 1481.74 2313.64 1495.88 2281.06 1514.89 2250.07 1513.97 2248.28 1513.97 2246.46 1513.8 2244.67 1513.62 2227.59 1511.8 2210.37 1503.4 2198.48 1493.96 2192.99 1489.63 2188.62 1485.07 2185.91 1480.88 2181.1 1473.4 2175.42 1462.62 2173.12 1451.5 2172.95 1450.74 2172.81 1449.99 2172.68 1449.27 2171.34 1441.3 2171.82 1433.34 2175.7 1426.4 2175.7 1426.4 2175.7 1426.4 2175.77 1426.34 2176.25 1425.51 2176.73 1424.65 2177.28 1423.76 2177.62 1423.14 2178 1422.49 2178.41 1421.87 2181.71 1416.48 2186.04 1410.17 2190.79 1403.85 2189.48 1401.24 2188.52 1398.43 2187.73 1395.48 2180.34 1367.5 2193.6 1327 2193.6 1327 2219.17 1332.15 2233.95 1355.04 2240.14 1367.16 2240.55 1367.98 2240.96 1368.81 2241.3 1369.53 2241.41 1369.53 2241.48 1369.53 2241.58 1369.53 2242.03 1369.53 2242.47 1369.53 2242.92 1369.53 2243.95 1369.53 2244.98 1369.53 2246.05 1369.6 2247.11 1369.6 2248.21 1369.63 2249.31 1369.73 2249.52 1369.73 2249.76 1369.77 2249.96 1369.77 2252.37 1369.91 2254.77 1370.08 2257.18 1370.25 2257.39 1370.25 2257.59 1370.25 2257.8 1370.32 2260.96 1370.56 2264.02 1370.87 2266.91 1371.18 2267.01 1371.18 2267.15 1371.21 2267.25 1371.21 2268.18 1371.31 2269.11 1371.42 2269.96 1371.55 2272.06 1371.79 2273.99 1372 2275.74 1372.24 2285.74 1360.64 2302.13 1346.43 2326.67 1338.19 2326.67 1338.19 2348.18 1382.06 2331.93 1422.05 2335.05 1433.44 2335.71 1444.94 2335.05 1454.62 2334.92 1456.44 2334.74 1458.19 2334.54 1459.84 2333.61 1467.39 2331.89 1473.33 2330.07 1476.55Z" fill="#FFFFFF" fill-rule="evenodd" fill-opacity="0.25098"/><path d="M2250.75 1513.97C2248.91 1514.04 2247.07 1513.97 2245.23 1513.87 2227.8 1512.63 2210.62 1503.54 2198.96 1492.89 2192.19 1480.87 2196.15 1468.95 2196.15 1468.95L2196.91 1471.85C2196.57 1468.3 2197.16 1463.99 2200.73 1460.65L2200.73 1466.78C2200.73 1466.78 2204.1 1447.29 2220.03 1453.07L2231.2 1454.9C2248.59 1452.38 2256.61 1476.46 2256.61 1476.46L2258.14 1471.09C2258.14 1471.09 2268.86 1479.53 2269.87 1490.58L2274 1488.69C2274 1488.69 2270.15 1509.25 2250.75 1513.94Z" fill="#FFFFFF" fill-rule="evenodd" fill-opacity="0.2"/><path d="M2277.92 1438.24C2277.3 1445.12 2273.05 1450.39 2268.39 1449.98 2263.72 1449.57 2260.45 1443.68 2261.08 1436.76 2261.7 1429.88 2265.95 1424.61 2270.61 1425.02 2275.28 1425.43 2278.55 1431.32 2277.92 1438.24Z" fill="#263238" fill-rule="evenodd"/><path d="M2216.48 1429.5C2214.85 1436.3 2209.95 1440.95 2205.56 1439.84 2201.17 1438.73 2198.9 1432.31 2200.53 1425.5 2202.15 1418.7 2207.05 1414.05 2211.44 1415.16 2215.83 1416.27 2218.1 1422.69 2216.48 1429.5Z" fill="#263238" fill-rule="evenodd"/><path d="M2215.3 1452.61C2215.3 1452.61 2221.29 1448.09 2228.61 1454.21 2230.97 1456.15 2221.8 1463 2221.8 1463 2221.8 1463 2213.32 1455.49 2215.3 1452.61Z" fill="#263238" fill-rule="evenodd"/><path d="M2222.53 1457.5C2222.53 1457.5 2220.46 1472.51 2222.19 1475.88 2223.95 1479.25 2250.01 1490.02 2247.3 1473.76" stroke="#263238" stroke-width="2.75" stroke-linecap="round" stroke-linejoin="round" stroke-miterlimit="10" fill="none" fill-rule="evenodd"/><path d="M2222.5 1475.92C2222.5 1475.92 2217.39 1480.03 2209.96 1474.99 2202.52 1469.96 2206.63 1465.5 2206.63 1465.5" stroke="#263238" stroke-width="2.75" stroke-linecap="round" stroke-linejoin="round" stroke-miterlimit="10" fill="none" fill-rule="evenodd"/><path d="M2334.49 1460C2329.2 1454.22 2315.81 1444.37 2283 1437 2283 1437 2319.85 1439.28 2335 1454.74 2334.86 1456.58 2334.7 1458.34 2334.49 1460Z" fill="#000000" fill-rule="evenodd" fill-opacity="0.4"/><path d="M2233 1426.99C2232.9 1427.81 2234.81 1391.12 2250.06 1370 2252.5 1370.14 2254.94 1370.31 2257.37 1370.48 2257.58 1370.48 2257.79 1370.48 2258 1370.55 2250.27 1380.78 2237.49 1400.97 2233 1426.99Z" fill="#000000" fill-rule="evenodd" fill-opacity="0.4"/><path d="M2280 1385.89C2280 1385.89 2301.5 1353.85 2324.36 1343 2324.36 1343 2343.96 1379 2327.26 1420 2327.26 1420 2311.64 1416.49 2306.84 1409.73 2306.84 1409.73 2310.43 1400.09 2316.92 1396.64 2316.92 1396.64 2308.6 1399.26 2305.36 1403.67 2305.36 1403.67 2307.79 1387.75 2313.94 1380.35 2313.94 1380.35 2302.01 1389.03 2298.93 1400.91 2298.93 1400.91 2282.94 1395.37 2280.07 1385.93Z" fill="#FFFFFF" fill-rule="evenodd" fill-opacity="0.2"/><path d="M2276 1371.98C2274.32 1374.91 2272.37 1381 2272.37 1381 2272.37 1381 2268.39 1376.35 2268 1371 2270.91 1371.34 2273.67 1371.67 2276 1372.01Z" fill="#000000" fill-rule="evenodd" fill-opacity="0.2"/><path d="M2193.62 1402C2193.62 1402 2205.17 1390.1 2211.64 1386.67 2211.64 1386.67 2206.61 1377 2204.49 1376.08 2204.49 1376.08 2209.52 1377.83 2213.07 1381.51 2213.07 1381.51 2212.08 1371.16 2207.91 1366.1 2207.91 1366.1 2215.84 1373.43 2218.68 1381.06L2229 1374.84C2229 1374.84 2220.69 1346.99 2194.92 1331 2194.92 1331 2180.26 1375.39 2193.62 1402Z" fill="#FFFFFF" fill-rule="evenodd" fill-opacity="0.2"/><path d="M2176 1426C2179.46 1419.9 2184.87 1411.94 2190.97 1403.92 2189.67 1401.35 2188.71 1398.59 2187.92 1395.69 2201.76 1382.94 2223 1379 2223 1379 2193.51 1399.77 2176.99 1424.48 2176 1426Z" fill="#000000" fill-rule="evenodd" fill-opacity="0.2"/><path d="M2270 1371.35C2267.59 1374.06 2265.35 1377.05 2263.39 1380.11 2261.85 1382.47 2260.5 1385.01 2259.44 1387.61 2258.4 1390.15 2257.72 1393.14 2256.34 1395.78 2253.55 1401.03 2249.63 1405.34 2245.95 1409.75 2242.37 1414.06 2238.58 1418.47 2237 1424 2238.31 1418.37 2241.96 1413.75 2245.4 1409.3 2248.94 1404.75 2252.62 1400.26 2255.07 1395.12 2256.3 1392.58 2256.79 1389.84 2257.78 1386.99 2258.78 1384.17 2260.09 1381.53 2261.54 1378.99 2263.19 1376.21 2264.98 1373.57 2266.94 1371 2267.04 1371 2267.18 1371.03 2267.28 1371.03 2268.21 1371.14 2269.14 1371.24 2270 1371.38Z" fill="#000000" fill-rule="evenodd" fill-opacity="0.4"/><path d="M2230.81 1404.39C2230.81 1409.62 2230.98 1414.84 2230.03 1420 2230.75 1414.84 2230.33 1409.62 2230.1 1404.43 2230.03 1401.8 2229.89 1399.2 2230.16 1396.54 2230.4 1393.87 2231.53 1391.28 2232.66 1388.99 2233.86 1386.67 2234.71 1384.34 2235.67 1381.82 2236.7 1379.36 2238.03 1377.04 2239.5 1374.82 2240.56 1373.14 2241.72 1371.57 2242.89 1370 2243.91 1370 2244.94 1370 2246 1370.07 2244.32 1371.98 2242.79 1373.93 2241.28 1376.01 2239.81 1378.09 2238.41 1380.25 2237.35 1382.53 2236.32 1384.82 2235.23 1387.38 2233.96 1389.64 2232.66 1391.93 2231.57 1394.15 2231.22 1396.67 2230.85 1399.2 2230.85 1401.8 2230.81 1404.39Z" fill="#000000" fill-rule="evenodd" fill-opacity="0.4"/><path d="M2328 1480.02C2327.52 1480.67 2326.98 1481.32 2326.37 1482 2319.15 1478.8 2312.38 1474.81 2306.16 1470.03 2301.84 1466.62 2297.55 1462.77 2295 1457.8 2292.45 1453.02 2287.44 1449.61 2282 1449 2287.48 1449.38 2292.75 1452.61 2295.61 1457.42 2298.33 1462.16 2302.58 1465.7 2306.97 1468.88 2313.51 1473.44 2320.58 1477.16 2327.97 1480.02Z" fill="#000000" fill-rule="evenodd" fill-opacity="0.4"/><path d="M2196 1420.43C2192.97 1420.32 2189.88 1420.36 2186.92 1421 2183.92 1421.6 2181.03 1422.54 2178.26 1423.85 2178.16 1423.85 2178.1 1423.93 2178 1424 2178.33 1423.32 2178.69 1422.61 2179.09 1421.94 2181.62 1421.07 2184.22 1420.51 2186.82 1420.21 2189.88 1419.8 2192.97 1420.06 2196 1420.43Z" fill="#000000" fill-rule="evenodd" fill-opacity="0.4"/><path d="M2194 1433C2190.27 1433.89 2187.06 1436.03 2184.34 1438.63 2181.58 1441.2 2179.24 1444.23 2176.98 1447.26 2175.79 1448.83 2174.64 1450.43 2173.45 1452 2173.28 1451.22 2173.14 1450.43 2173 1449.68 2173.91 1448.54 2174.88 1447.44 2175.83 1446.33 2178.3 1443.41 2180.88 1440.56 2183.85 1438.1 2186.78 1435.67 2190.23 1433.68 2193.97 1433.04Z" fill="#000000" fill-rule="evenodd" fill-opacity="0.4"/><path d="M2373 1793.05C2373 1793.05 2262.14 1838.77 2216.22 1820.83 2212.57 1809.64 2208.37 1794.46 2206 1778 2236.25 1787.67 2314.11 1804.99 2373 1793.05Z" fill="#000000" fill-rule="evenodd" fill-opacity="0.2"/><path d="M2385.77 1784.95C2385.77 1784.95 2234.69 1838.24 2164.03 1778.75 2079.26 1707.38 2153.66 1614.65 2135.46 1598.36 2117.27 1582.1 2091.79 1582.44 2080.63 1637.04 2069.47 1691.64 2075.65 1840 2223.33 1840 2371 1840 2404 1840 2404 1840L2385.8 1784.95Z" fill="#263238" fill-rule="evenodd"/><path d="M2404 1840 2223.32 1840C2218.79 1840 2214.36 1839.86 2210.1 1839.55 2208.18 1839.45 2206.26 1839.28 2204.37 1839.1 2182.66 1837.07 2164.5 1831.53 2149.32 1823.4 2147.57 1822.47 2145.85 1821.51 2144.23 1820.47 2129.81 1811.86 2118.27 1800.88 2109.07 1788.48 2107.87 1786.82 2106.7 1785.21 2105.56 1783.52 2096.5 1769.95 2090.04 1754.97 2085.58 1739.68 2084.99 1737.75 2084.44 1735.82 2084 1733.89 2080.43 1720.18 2078.43 1706.41 2077.54 1693.32 2077.4 1691.32 2077.3 1689.33 2077.23 1687.36 2076.72 1675.69 2077.09 1664.7 2078.02 1655.06 2078.67 1648.38 2079.57 1642.28 2080.63 1637.05 2091.79 1582.46 2117.24 1582.08 2135.48 1598.37 2143.68 1605.71 2133.07 1628.54 2126.72 1657.98 2124.86 1666.53 2123.35 1675.65 2122.8 1685.12 2122.7 1687.02 2122.6 1688.95 2122.56 1690.91 2122.39 1700.55 2123.29 1710.51 2125.79 1720.49 2126.27 1722.39 2126.79 1724.32 2127.41 1726.21 2130.53 1736.09 2135.34 1746.01 2142.45 1755.79 2143.58 1757.41 2144.85 1759.03 2146.12 1760.62 2151.1 1766.78 2157.01 1772.84 2164.05 1778.77 2167.28 1781.49 2170.68 1783.97 2174.21 1786.24 2175.93 1787.31 2177.68 1788.37 2179.47 1789.34 2188.43 1794.33 2198.15 1798.09 2208.42 1800.81 2210.27 1801.29 2212.13 1801.77 2214.02 1802.19 2228.89 1805.53 2244.65 1806.9 2260.35 1806.9L2260.35 1806.9C2262.34 1806.9 2264.33 1806.9 2266.32 1806.83 2281.88 1806.49 2297.26 1804.91 2311.58 1802.74 2313.68 1802.43 2315.74 1802.12 2317.8 1801.77 2356.57 1795.3 2385.83 1784.97 2385.83 1784.97L2404 1840Z" fill="#FFFFFF" fill-rule="evenodd" fill-opacity="0.2"/><path d="M2126.34 1658C2109.63 1650.83 2090.78 1652.45 2078 1655.07 2078.65 1648.39 2079.53 1642.29 2080.59 1637.06 2091.67 1582.46 2116.93 1582.08 2135.03 1598.37 2143.18 1605.71 2132.65 1628.55 2126.34 1658Z" fill="#000000" fill-rule="evenodd" fill-opacity="0.4"/><path d="M2122 1685.21C2121.9 1687.24 2121.8 1689.31 2121.76 1691.41 2104.71 1689.2 2089.82 1690.05 2077.31 1694 2077.17 1691.86 2077.07 1689.72 2077 1687.61 2089.85 1683.84 2104.91 1682.99 2122 1685.21Z" fill-rule="evenodd"/><path d="M2127 1726.66C2111.86 1727.75 2096.96 1733.89 2085.57 1740 2084.99 1738.09 2084.44 1736.18 2084 1734.27 2095.5 1728.23 2110.2 1722.36 2125.4 1721 2125.88 1722.88 2126.39 1724.79 2127 1726.66Z" fill-rule="evenodd"/><path d="M2146 1760.86C2133.92 1766.32 2119.06 1775.21 2108.54 1789 2107.33 1787.33 2106.15 1785.7 2105 1784 2115.73 1770.45 2130.17 1761.56 2142.29 1756 2143.43 1757.63 2144.72 1759.27 2146 1760.86Z" fill-rule="evenodd"/><path d="M2173.78 1786.03C2175.49 1787.1 2177.23 1788.16 2179 1789.12 2167.13 1798.71 2156.89 1811.49 2149.05 1823 2147.31 1822.08 2145.6 1821.12 2144 1820.09 2151.74 1808.68 2161.88 1795.97 2173.78 1786Z" fill-rule="evenodd"/><path d="M2214 1802.35C2212.51 1811.61 2210.37 1826.86 2209.94 1840 2207.95 1839.9 2205.96 1839.72 2204 1839.55 2204.46 1825.82 2206.67 1810.26 2208.16 1801 2210.09 1801.49 2212.01 1801.97 2213.96 1802.39Z" fill-rule="evenodd"/><path d="M2266 1807.03C2263.06 1816.86 2262.51 1829.32 2262.89 1840L2257.08 1840C2256.77 1829.49 2257.26 1817.34 2259.99 1807.07L2259.99 1807.07C2261.99 1807.07 2264 1807.07 2266 1807Z" fill-rule="evenodd"/><path d="M2333 1839.97 2326.93 1839.97C2324.57 1825.77 2316.36 1811.3 2311 1802.96 2313.18 1802.65 2315.32 1802.34 2317.46 1802 2323.14 1811.1 2330.82 1825.53 2333 1840Z" fill-rule="evenodd"/><path d="M2374.48 1840 2369.06 1840C2372.54 1820.85 2366 1799 2366 1799 2374.74 1814.58 2375.93 1828.82 2374.48 1840Z" fill-rule="evenodd"/><path d="M1641 1765.88C1641 1763.75 1641.76 1756.55 1647.11 1753.06 1648.9 1751.91 1651.2 1751.14 1654.15 1751.14 1654.15 1751.14 1651.4 1745.56 1660.91 1745.07 1670.42 1744.61 1666.82 1743.88 1669.98 1739.65 1673.14 1735.4 1682.2 1737.04 1682.2 1737.04 1682.2 1737.04 1679.93 1733.16 1692.6 1729.91 1705.31 1726.67 1708.22 1733.13 1708.22 1733.13 1708.22 1733.13 1712.48 1727.19 1717.94 1729.91 1723.4 1732.64 1724.77 1739.65 1724.77 1739.65 1724.77 1739.65 1730.64 1733.75 1736.55 1739.65L1742.42 1745.56C1742.42 1745.56 1747.84 1745.77 1752.38 1748.91 1756.91 1752.02 1755.98 1752.02 1759.38 1752.02 1761.44 1752.02 1765.18 1750.83 1769.13 1752.29 1771.77 1753.27 1774.49 1755.4 1776.82 1759.8 1782.73 1770.87 1641 1765.88 1641 1765.88Z" fill="#EC6144" fill-rule="evenodd"/><path d="M1812 1840 1604 1840 1619.22 1761.63C1619.6 1759.71 1620.73 1758.1 1622.32 1757.1 1623.41 1756.41 1624.69 1756 1626.06 1756L1789.94 1756C1790.83 1756 1791.69 1756.17 1792.45 1756.48 1794.65 1757.31 1796.3 1759.23 1796.78 1761.63L1800.32 1779.84 1803.68 1797.19 1805.68 1807.53 1808.08 1819.76 1812 1840Z" fill="#263238" fill-rule="evenodd"/><path d="M1769 1752.69C1768.59 1753.22 1768.11 1753.69 1767.52 1754.04 1766.36 1754.72 1764.98 1754.89 1763.68 1754.97 1757.91 1755.25 1752.25 1753.76 1746.69 1752.27 1745.42 1751.91 1744.11 1751.56 1742.84 1751.24 1742.46 1751.13 1742.09 1751.02 1741.74 1751.09 1741.02 1751.2 1740.41 1751.88 1739.68 1751.77 1739.07 1751.7 1738.65 1751.09 1738.07 1750.85 1736.59 1750.28 1735.15 1752.34 1733.61 1752.05 1733.13 1751.98 1732.72 1751.66 1732.27 1751.52 1731.62 1751.34 1730.93 1751.45 1730.24 1751.45 1727.5 1751.56 1724.75 1749.92 1723.45 1747.4 1721.35 1750.24 1718.47 1752.69 1715.07 1753.33 1711.67 1753.97 1707.73 1752.37 1706.35 1749.11 1706.11 1748.54 1705.91 1747.86 1705.36 1747.58 1704.6 1747.22 1703.78 1747.86 1703.33 1748.61 1702.92 1749.32 1702.71 1750.21 1702.13 1750.77 1701.37 1751.52 1700.24 1751.59 1699.18 1751.63 1694.54 1751.73 1689.53 1751.73 1685.82 1748.82 1685.31 1748.4 1684.73 1747.9 1684.04 1748.04 1683.42 1748.11 1683.04 1748.75 1682.67 1749.25 1678.58 1755.18 1669.35 1756.28 1664.06 1751.48 1663.1 1752.91 1661.01 1753.37 1659.56 1752.44 1659.19 1752.2 1658.84 1751.84 1658.4 1751.84 1657.85 1751.8 1657.4 1752.3 1656.96 1752.69 1654.93 1754.54 1649.92 1754.79 1647 1753.47 1648.78 1752.3 1651.08 1751.52 1654.04 1751.52 1654.04 1751.52 1651.29 1745.84 1660.8 1745.34 1670.31 1744.88 1666.7 1744.13 1669.86 1739.84 1673.02 1735.5 1682.08 1737.17 1682.08 1737.17 1682.08 1737.17 1679.82 1733.23 1692.48 1729.93 1705.19 1726.63 1708.1 1733.2 1708.1 1733.2 1708.1 1733.2 1712.36 1727.16 1717.82 1729.93 1723.28 1732.7 1724.65 1739.84 1724.65 1739.84 1724.65 1739.84 1730.52 1733.84 1736.42 1739.84L1742.29 1745.84C1742.29 1745.84 1747.72 1746.05 1752.25 1749.25 1756.78 1752.41 1755.85 1752.41 1759.25 1752.41 1761.31 1752.41 1765.05 1751.2 1769 1752.69Z" fill="#FFFFFF" fill-rule="evenodd" fill-opacity="0.2"/><path d="M1792 1757.1C1792 1760.34 1789.36 1763 1786.13 1763L1627.87 1763C1624.64 1763 1622 1760.34 1622 1757.1 1623.1 1756.41 1624.37 1756 1625.74 1756L1789.43 1756C1790.32 1756 1791.18 1756.17 1791.93 1756.48 1792 1756.69 1792 1756.9 1792 1757.1Z" fill="#FFFFFF" fill-rule="evenodd" fill-opacity="0.101961"/></g></svg>