<?xml version="1.0" encoding="UTF-8"?>
<svg id="Layer_1" xmlns="http://www.w3.org/2000/svg" version="1.1" viewBox="0 0 1452.15 628.59">
  <!-- Generator: Adobe Illustrator 29.2.1, SVG Export Plug-In . SVG Version: 2.1.0 Build 116)  -->
  <defs>
    <style>
      .st0 {
        fill: #fff;
      }
    </style>
  </defs>
  <g>
    <g>
      <path class="st0" d="M30.45,606.69v-130.2h-14.02c-11.62,0-16.43-4.81-16.43-16.42v-22.43c0-11.62,4.81-16.02,16.43-16.02h14.02v-5.61c0-61.3,30.85-89.74,97.35-89.74,16.83,0,22.03,4.41,22.03,20.43v18.83c0,10.82-5.21,16.02-16.43,16.02-27.64,0-37.66,10.42-37.66,38.46v1.6h28.44c11.22,0,16.43,4.41,16.43,16.02v22.43c0,11.62-5.21,16.42-16.43,16.42h-28.44v130.2c0,11.62-4.41,16.43-16.02,16.43h-33.25c-11.22,0-16.02-4.81-16.02-16.43h0Z"/>
      <path class="st0" d="M166.66,533.37v-116.58c0-11.22,4.81-16.02,16.02-16.02h33.25c11.62,0,16.02,4.81,16.02,16.02v111.37c0,31.25,9.61,43.67,31.65,43.67,12.42,0,27.24-5.21,37.66-14.02v-141.02c0-11.22,5.21-16.02,16.43-16.02h33.25c11.22,0,16.02,4.81,16.02,16.02v189.89c0,11.62-4.81,16.43-16.02,16.43h-26.04c-11.22,0-16.02-4.41-16.02-15.62v-3.61c-16.83,15.22-42.46,23.64-66.1,23.64-51.28,0-76.12-30.45-76.12-94.15h0Z"/>
      <path class="st0" d="M416.64,606.69v-189.89c0-11.22,4.81-16.02,16.02-16.02h26.04c11.22,0,16.02,4.41,16.02,16.02v11.62c13.22-16.42,42.87-31.65,62.09-31.65,12.02,0,16.83,4.81,16.83,16.43v36.86c0,11.62-5.21,16.43-16.43,16.43-18.83,0-40.86-2.4-55.29-4.41v144.62c0,11.62-4.41,16.43-16.02,16.43h-33.25c-11.22,0-16.02-4.81-16.02-16.43h0Z"/>
      <path class="st0" d="M572.08,513.34c0-76.12,38.86-117.38,110.57-117.38,56.89,0,92.54,27.24,92.54,70.51,0,38.86-24.84,58.89-75.72,62.5l-60.09,4.01c3.2,27.64,18.43,40.06,52.88,40.06,18.03,0,37.66-3.61,54.48-10.42,13.22-5.61,22.03-2.81,22.03,9.21v22.03c0,10.42-4.81,17.63-16.02,22.04-16.83,6.81-44.87,11.62-68.91,11.62-76.12,0-111.77-36.06-111.77-114.18h.01ZM675.44,490.51c26.04-2,38.06-8.41,38.06-23.24s-12.02-22.84-32.05-22.84c-26.04,0-40.86,17.23-42.47,48.87l36.46-2.8h0Z"/>
      <path class="st0" d="M812.85,558.21v-213.53c0-11.62,4.81-16.43,16.02-16.43h33.25c11.62,0,16.02,4.81,16.02,16.43v206.72c0,14.42,5.21,20.43,16.83,20.43,3.6,0,5.21-.4,7.21-.4,8.81,0,12.02,4.01,12.02,14.02v20.43c0,10.82-4.41,15.62-16.02,18.43-6.81,2-15.22,2.4-22.43,2.4-45.27,0-62.9-19.23-62.9-68.51h0Z"/>
      <path class="st0" d="M934.24,363.11c0-22.84,14.82-36.06,41.26-36.06s41.66,13.22,41.66,36.06-14.82,36.45-41.66,36.45-41.26-13.22-41.26-36.45ZM943.05,606.69v-172.67c0-9.61,5.61-14.02,15.62-12.42,6.41,1.2,11.22,1.6,16.83,1.6,6.01,0,10.82-.4,17.23-1.6,10.02-1.6,15.63,2.8,15.63,12.42v172.67c0,11.62-4.41,16.43-16.02,16.43h-33.25c-11.22,0-16.02-4.81-16.02-16.43h-.02,0Z"/>
      <path class="st0" d="M1050.01,512.14c0-77.32,36.06-116.18,108.57-116.18,22.03,0,38.46,4.41,46.87,7.61,9.21,4.01,13.62,10.42,11.22,20.83l-4.81,22.84c-2.4,13.22-9.61,13.62-21.23,10.01-11.62-4.01-18.83-5.61-28.84-5.61-31.65,0-44.07,17.63-44.07,59.69s12.82,60.49,44.47,60.49c10.82,0,19.63-1.6,35.66-6.41,11.62-3.2,17.63,0,17.63,12.82v22.03c0,10.82-3.6,16.43-14.02,20.03-10.42,4.41-26.84,7.21-45.27,7.21-70.91,0-106.16-38.86-106.16-115.38l-.02.02h0Z"/>
    </g>
    <g>
      <path class="st0" d="M1148.47,178.24l-53.02,42.87c-5.02,4.06-7.27,10.64-5.77,16.93l9.23,38.68c3.31,13.87,15.7,23.65,29.95,23.65h5.24c6.16,0,11.16-4.99,11.16-11.16v-31.21c0-2.28,1.85-4.13,4.13-4.13h12.05c2.28,0,4.13,1.85,4.13,4.13v31.21c0,6.16,4.99,11.16,11.16,11.16h5.24c14.25,0,26.65-9.78,29.95-23.65l9.23-38.68c1.5-6.28-.74-12.87-5.77-16.93l-53.02-42.87c-4.05-3.27-9.84-3.27-13.89,0h0Z"/>
      <g>
        <path class="st0" d="M1151.52,112.58c-1.46-15.86-12.97-35.56-30.15-37.86-11.09-1.48-21.02,3.98-26.53,13.44-4.72,8.1-4.86,17.25-4.43,26.38.77,16.5,5.36,31.06,17.69,42.56,1.58,1.48,3.44,2.58,5.45,3.34,7.13,3.38,15.8,3.24,22.37-2.1,12.42-10.09,17.02-30.49,15.61-45.77h0Z"/>
        <path class="st0" d="M1220.31,117.41c.64-15.91-8.18-36.95-24.91-41.5-10.8-2.93-21.36,1.18-28.07,9.83-5.75,7.41-7.09,16.46-7.87,25.57-1.41,16.45,1.23,31.49,11.93,44.52,1.38,1.67,3.07,3.01,4.96,4.03,6.62,4.29,15.23,5.3,22.46.87,13.64-8.36,20.88-27.98,21.5-43.32Z"/>
        <path class="st0" d="M1265.36,188.2c6.46-12.66,7.16-33.01-4.7-42.93-7.66-6.41-17.75-7.02-26.42-2.51-7.42,3.86-11.89,10.7-15.92,17.79-7.28,12.81-10.76,25.98-6.94,40.54.49,1.87,1.36,3.59,2.51,5.12,3.77,5.95,10.37,9.98,17.88,9.08,14.18-1.69,27.37-14.89,33.59-27.09Z"/>
        <path class="st0" d="M1077.36,215.29c7.51.89,14.11-3.13,17.88-9.08,1.15-1.53,2.02-3.25,2.51-5.12,3.82-14.55.34-27.73-6.94-40.54-4.03-7.09-8.49-13.93-15.92-17.79-8.67-4.51-18.77-3.9-26.42,2.51-11.86,9.92-11.16,30.27-4.7,42.93,6.22,12.2,19.41,25.4,33.59,27.09h0Z"/>
      </g>
    </g>
  </g>
  <g>
    <path class="st0" d="M1336.52,226.84c10.16-49.38.48-99.76-27.25-141.86-27.74-42.11-70.21-70.89-119.6-81.05-49.38-10.16-99.77-.48-141.88,27.26-42.11,27.74-70.89,70.21-81.05,119.6-10.16,49.38-.48,99.77,27.26,141.87,27.74,42.11,70.21,70.89,119.6,81.05,13.36,2.75,26.79,4.04,40.11,3.92,27.98-.25,55.46-6.78,80.76-19.2l19.83,30.1,20-12.9.36-.23,19.19-12.37-20.02-30.39c32.09-27.16,54.09-63.98,62.69-105.8h0ZM1233.17,312.58c-33.06,21.78-72.62,29.38-111.4,21.4s-72.13-30.57-93.9-63.63c-21.78-33.06-29.38-72.62-21.4-111.39,7.98-38.78,30.57-72.12,63.63-93.9,24.12-15.89,51.69-24.23,79.9-24.49,10.46-.09,21.01.93,31.5,3.08,38.77,7.98,72.12,30.57,93.9,63.63,44.96,68.24,26.01,160.34-42.23,205.3Z"/>
    <g>
      <path class="st0" d="M1439.08,614.41l-7.28,4.7-.36.23-128.56-199.39-28.58-44.32.36-.23,19.19-12.37,3.59-2.32c4.68-3.01,10.9-1.67,13.92,3.01l136.23,211.27c8.54,13.24,4.73,30.89-8.51,39.42h0Z"/>
      <path class="st0" d="M1431.8,619.11l-.36.23-7.28,4.7c-13.24,8.53-30.88,4.72-39.42-8.51l-136.23-211.27c-3.02-4.68-1.67-10.91,3.01-13.93h0l2.78-1.8,20-12.9.36-.23,28.57,44.32,128.57,199.39Z"/>
    </g>
  </g>
</svg>