<?xml version="1.0" encoding="UTF-8" standalone="no"?>
<!-- Created with Inkscape (http://www.inkscape.org/) -->

<svg
   width="267.758mm"
   height="66.145836mm"
   viewBox="0 0 267.758 66.145836"
   version="1.1"
   id="svg1"
   xml:space="preserve"
   xmlns="http://www.w3.org/2000/svg"
   xmlns:svg="http://www.w3.org/2000/svg"><defs
     id="defs1"><clipPath
       id="clip0-15"><rect
         x="34"
         y="382"
         width="1012"
         height="250"
         id="rect1-2" /></clipPath></defs><g
     id="layer1"
     transform="translate(-11.740695,-150.51856)"><g
       clip-path="url(#clip0-15)"
       transform="matrix(0.26458333,0,0,0.26458333,2.7448637,49.447709)"
       id="g8"><path
         d="m 136.397,382.011 c 5.064,-0.07 9.293,0.194 11.673,0.807 8.649,2.228 9.928,5.181 9.93,22.927 0.001,11.787 -0.103,12.834 -1.567,15.8 -2.125,4.304 -4.721,5.454 -13.833,6.117 -12.124,0.885 -17.732,2.667 -22.088,7.015 -4.665,4.655 -7.257,12.377 -7.282,21.685 l -0.012,4.557 14.529,0.219 c 15.958,0.24 17.403,0.583 20.611,4.874 1.34,1.793 1.453,2.925 1.647,16.535 0.191,13.323 0.09,14.878 -1.139,17.65 -1.005,2.27 -2.098,3.433 -4.311,4.596 -2.75,1.444 -3.982,1.576 -17.131,1.818 l -14.168,0.261 -0.19,56.739 c -0.186,55.663 -0.216,56.782 -1.581,59.103 -0.765,1.3 -2.458,2.99 -3.761,3.753 -2.204,1.292 -3.626,1.398 -20.4866,1.519 -10.7257,0.075 -19.0946,-0.155 -20.5112,-0.567 -1.3161,-0.385 -3.1249,-1.365 -4.0193,-2.177 -3.5923,-3.27 -3.5014,-1.653 -3.5014,-62.108 V 506.9 l -8.3753,-0.281 c -9.2908,-0.314 -12.6005,-1.377 -15.1684,-4.879 -1.314,-1.793 -1.424,-2.997 -1.591,-17.401 -0.1739,-15.02 -0.1336,-15.557 1.3794,-18.206 2.197,-3.847 5.9902,-5.047 16.0635,-5.088 l 7.6918,-0.028 v -8.462 c 0,-24.063 7.8804,-43.514 22.1942,-54.782 9.2624,-7.29 23.4323,-12.675 38.3143,-14.561 5.719,-0.726 11.619,-1.131 16.683,-1.201 z"
         fill="#343434"
         fill-rule="evenodd"
         id="path1" /><path
         d="m 845.817,383.001 c 12.904,-0.042 21.12,2.839 27.262,9.557 4.656,5.097 6.954,12.039 6.921,20.929 -0.067,18.323 -11.398,28.709 -32.131,29.452 -4.325,0.157 -9.405,0 -11.284,-0.344 -7.998,-1.468 -13.732,-4.489 -18.352,-9.672 -4.909,-5.506 -6.204,-9.659 -6.232,-19.988 -0.029,-10.415 1.271,-14.495 6.444,-20.202 6.344,-7 13.906,-9.688 27.372,-9.732 z"
         fill="#343434"
         fill-rule="evenodd"
         id="path2" /><path
         d="m 737.468,384 c 19.608,0 20.403,0.049 22.257,1.437 1.058,0.794 2.538,2.485 3.287,3.764 1.339,2.283 1.367,3.87 1.702,95.004 0.198,53.61 0.602,93.259 0.962,94.05 2.713,5.975 5.802,7.451 15.723,7.516 12.207,0.08 12.601,0.698 12.601,19.733 0,7.804 -0.301,14.161 -0.726,15.286 -2.618,6.936 -10.981,9.806 -29.582,10.147 -6.369,0.116 -12.498,0.067 -13.623,-0.109 -21.162,-3.345 -31.714,-12.347 -36.986,-31.547 l -1.83,-6.662 -0.18,-100.547 c -0.173,-94.898 -0.113,-100.681 1.019,-102.894 0.659,-1.29 2.065,-2.983 3.123,-3.761 1.843,-1.36 2.762,-1.417 22.253,-1.417 z"
         fill="#343434"
         fill-rule="evenodd"
         id="path3" /><path
         d="m 595.719,440.044 c 9.609,-0.216 21.619,0.378 27.699,1.542 24.291,4.65 41.571,16.073 49.521,32.739 3.441,7.211 4.562,12.106 4.986,21.75 1.182,26.966 -11.641,43.396 -39.461,50.566 -4.325,1.115 -10.327,2.346 -13.335,2.737 -4.436,0.574 -55.082,4.153 -58.783,4.153 -1.218,0 -0.977,1.992 1.116,9.234 1.82,6.293 3.231,8.953 6.961,13.103 6.072,6.761 15.961,10.321 30.529,10.989 15.144,0.696 29.955,-1.604 47.051,-7.31 11.083,-3.697 12.642,-3.935 16.185,-2.453 4.289,1.794 4.813,3.809 4.813,18.539 0,10.909 -0.201,13.525 -1.238,16.216 -3.443,8.931 -17.111,14.753 -44.052,18.766 -8.607,1.281 -34.765,1.853 -42.853,0.934 -32.871,-3.728 -54.117,-17.147 -65.431,-41.316 -6.178,-13.193 -8.876,-27.452 -9.344,-49.368 -0.37,-17.403 0.434,-25.969 3.642,-38.7 9.14,-36.28 34.184,-57.282 73.493,-61.627 2.361,-0.26 5.298,-0.422 8.501,-0.494 z m 3.502,40.297 c -3.468,-0.007 -5.825,0.278 -8.599,0.957 -13.947,3.423 -23.234,16.251 -25.041,34.594 -0.432,4.388 -0.365,4.779 0.817,4.771 0.705,-0.003 8.982,-0.6 18.39,-1.33 19.184,-1.483 26.148,-2.663 32.134,-5.441 7.93,-3.685 11.407,-9.771 9.982,-17.478 -0.922,-4.997 -2.178,-7.279 -5.637,-10.241 -4.482,-3.843 -9.253,-5.349 -18.15,-5.732 -1.46,-0.063 -2.739,-0.098 -3.896,-0.1 z"
         fill="#343434"
         fill-rule="evenodd"
         id="path4" /><path
         d="m 1001.29,440.092 c 21.93,0.748 36.89,4.747 42.4,11.328 3.09,3.695 3.08,6.917 -0.04,21.829 -1.53,7.287 -3.26,13.992 -3.86,14.901 -3.1,4.769 -6.97,4.948 -20.46,0.944 -8.87,-2.634 -10.12,-2.831 -18.04,-2.87 -19.887,-0.093 -30.032,7.003 -34.705,24.272 -4.921,18.186 -2.972,48.99 3.839,60.723 5.58,9.604 13.315,13.763 27.487,14.775 7.509,0.538 16.699,-0.831 29.799,-4.439 7.61,-2.096 8.27,-2.171 11.06,-1.276 2.16,0.694 3.35,1.61 4.36,3.352 1.29,2.212 1.39,3.525 1.39,17.116 0,14.086 -0.07,14.862 -1.6,18.004 -1.22,2.49 -2.46,3.768 -5.11,5.3 -4.55,2.624 -12.18,5.137 -19.84,6.54 -8.37,1.532 -31.189,1.91 -39.833,0.66 -28.979,-4.187 -48.1,-16.977 -59.421,-39.748 -11.714,-23.558 -14.195,-66.017 -5.602,-95.859 2.231,-7.74 7.514,-18.966 11.722,-24.898 15.132,-21.334 41.365,-31.854 76.454,-30.654 z"
         fill="#343434"
         fill-rule="evenodd"
         id="path5" /><path
         d="m 479.862,441 c 7.913,-0.008 9.351,0.533 12.454,4.687 1.335,1.789 1.415,2.902 1.603,22.694 0.191,19.97 0.142,20.931 -1.234,23.771 -1.078,2.226 -2.204,3.334 -4.533,4.463 -2.974,1.438 -3.655,1.484 -16.493,1.1 -11.893,-0.356 -29.863,-1.855 -35.027,-2.919 l -1.862,-0.384 -0.184,63.404 c -0.184,63.252 -0.188,63.412 -1.619,65.332 -0.789,1.059 -2.477,2.538 -3.75,3.288 -2.137,1.26 -3.708,1.376 -20.383,1.525 -14.363,0.129 -18.628,-0.041 -20.796,-0.824 -3.336,-1.206 -5.517,-3.611 -6.465,-7.13 -0.486,-1.807 -0.658,-29.304 -0.534,-85.722 0.177,-81.385 0.208,-83.109 1.529,-85.294 0.742,-1.227 2.603,-2.837 4.136,-3.58 2.529,-1.223 4.235,-1.35 18.424,-1.347 17.198,0 18.795,0.317 21.725,4.306 1.205,1.641 1.446,3.125 1.641,10.111 l 0.229,8.189 4.544,-4.365 c 8.369,-8.042 20.395,-14.989 33.522,-19.365 4.906,-1.636 6.911,-1.935 13.073,-1.94 z"
         fill="#343434"
         fill-rule="evenodd"
         id="path6" /><path
         d="m 311.192,444 c 16.764,0 18.637,0.116 21.303,1.332 2.282,1.043 3.216,2.003 4.265,4.388 1.316,2.99 1.339,4.729 1.162,87.581 l -0.181,84.528 -1.433,1.933 c -3.169,4.276 -4.689,4.649 -20.011,4.902 -8.726,0.145 -15.256,-0.057 -17.426,-0.538 -5.652,-1.257 -8.442,-5.283 -8.442,-12.182 0,-1.601 -0.137,-2.913 -0.304,-2.913 -0.168,0 -2.236,1.467 -4.595,3.257 -8.182,6.206 -18.26,10.705 -30.5,13.607 -8.035,1.907 -24.076,2.709 -31.995,1.602 -6.096,-0.854 -15.066,-3.741 -20.763,-6.682 -7.149,-3.692 -15.45,-12.343 -19.517,-20.339 -4.076,-8.012 -6.417,-15.193 -8.261,-25.326 C 173.03,571.099 173,569.759 173,511.046 v -59.89 l 1.559,-2.52 c 2.764,-4.47 4.562,-4.778 26.417,-4.535 21.109,0.233 21.453,0.303 23.917,4.838 1.115,2.051 1.236,6.361 1.612,57.66 0.224,30.492 0.633,56.364 0.91,57.495 2.355,9.623 5.152,14.562 10.171,17.956 4.574,3.096 7.893,3.901 15.742,3.821 5.741,-0.06 7.853,-0.419 13.473,-2.292 6.571,-2.191 12.975,-5.544 15.97,-8.361 l 1.531,-1.439 v -60.826 c 0,-60.051 0.018,-60.858 1.402,-63.588 0.992,-1.955 2.234,-3.14 4.254,-4.064 2.579,-1.177 4.62,-1.301 21.234,-1.301 z"
         fill="#343434"
         fill-rule="evenodd"
         id="path7" /><path
         d="m 827.37,461.01 c 1.279,-0.039 2.785,0.039 4.584,0.212 7.91,0.759 20.182,0.759 28.095,0 7.195,-0.692 9.706,0.135 11.745,3.862 1.134,2.073 1.206,6.843 1.206,78.359 0,76.011 -0.003,76.158 -1.434,78.886 -2.751,5.243 -3.612,5.442 -24.54,5.63 -14.755,0.132 -19.005,-0.033 -21.19,-0.828 -3.23,-1.172 -5.604,-3.875 -6.319,-7.192 -0.285,-1.316 -0.517,-36.198 -0.517,-77.52 0,-70.536 0.075,-75.262 1.209,-77.335 1.529,-2.796 3.324,-3.959 7.161,-4.074 z"
         fill="#343434"
         fill-rule="evenodd"
         id="path8" /></g></g></svg>
