<svg width="1344" height="582" xmlns="http://www.w3.org/2000/svg" xmlns:xlink="http://www.w3.org/1999/xlink" xml:space="preserve" overflow="hidden"><g transform="matrix(1 0 0 1 0 -93)"><path d="M28.1718 561.299 28.1718 440.84 15.2008 440.84C4.45013 440.84 0 436.39 0 425.649L0 404.897C0 394.146 4.45013 390.076 15.2008 390.076L28.1718 390.076 28.1718 384.885C28.1718 328.172 56.7137 301.859 118.238 301.859 133.809 301.859 138.62 305.939 138.62 320.761L138.62 338.182C138.62 348.193 133.8 353.003 123.419 353.003 97.8473 353.003 88.577 362.644 88.577 388.586L88.577 390.066 114.889 390.066C125.27 390.066 130.09 394.146 130.09 404.888L130.09 425.64C130.09 436.39 125.27 440.831 114.889 440.831L88.577 440.831 88.577 561.29C88.577 572.04 84.4969 576.491 73.7556 576.491L42.9932 576.491C32.6127 576.491 28.1718 572.04 28.1718 561.29L28.1718 561.29Z" fill="#FFFFFF" transform="matrix(1.00037 0 0 1 0 93.2197)"/><path d="M154.191 493.465 154.191 385.607C154.191 375.226 158.641 370.785 169.012 370.785L199.775 370.785C210.525 370.785 214.596 375.236 214.596 385.607L214.596 488.644C214.596 517.556 223.487 529.047 243.878 529.047 255.369 529.047 269.08 524.227 278.721 516.076L278.721 385.607C278.721 375.226 283.541 370.785 293.921 370.785L324.684 370.785C335.064 370.785 339.505 375.236 339.505 385.607L339.505 561.29C339.505 572.04 335.055 576.491 324.684 576.491L300.592 576.491C290.211 576.491 285.77 572.411 285.77 562.039L285.77 558.699C270.2 572.781 246.487 580.571 224.616 580.571 177.172 580.571 154.191 552.399 154.191 493.465L154.191 493.465Z" fill="#FFFFFF" transform="matrix(1.00037 0 0 1 0 93.2197)"/><path d="M385.468 561.299 385.468 385.616C385.468 375.236 389.918 370.795 400.29 370.795L424.381 370.795C434.762 370.795 439.203 374.875 439.203 385.616L439.203 396.367C451.434 381.175 478.865 367.085 496.647 367.085 507.768 367.085 512.218 371.535 512.218 382.285L512.218 416.388C512.218 427.138 507.398 431.588 497.017 431.588 479.596 431.588 459.214 429.368 445.864 427.508L445.864 561.308C445.864 572.059 441.784 576.509 431.043 576.509L400.28 576.509C389.9 576.509 385.459 572.059 385.459 561.308L385.459 561.308Z" fill="#FFFFFF" transform="matrix(1.00037 0 0 1 0 93.2197)"/><path d="M529.279 474.933C529.279 404.508 565.231 366.335 631.576 366.335 684.21 366.335 717.192 391.537 717.192 431.57 717.192 467.523 694.211 486.054 647.137 489.394L591.543 493.104C594.504 518.676 608.594 530.167 640.467 530.167 657.148 530.167 675.309 526.827 690.871 520.526 703.102 515.336 711.253 517.927 711.253 529.047L711.253 549.429C711.253 559.069 706.803 565.74 696.431 569.82 680.86 576.12 654.918 580.571 632.677 580.571 562.252 580.571 529.269 547.209 529.269 474.933L529.279 474.933ZM624.905 453.811C648.997 451.961 660.118 446.031 660.118 432.31 660.118 418.59 648.997 411.179 630.466 411.179 606.374 411.179 592.663 427.12 591.173 456.393L624.905 453.802 624.905 453.802Z" fill="#FFFFFF" transform="matrix(1.00037 0 0 1 0 93.2197)"/><path d="M752.035 516.446 752.035 318.892C752.035 308.141 756.485 303.691 766.856 303.691L797.618 303.691C808.369 303.691 812.44 308.141 812.44 318.892L812.44 510.146C812.44 523.487 817.26 529.047 828.011 529.047 831.341 529.047 832.831 528.677 834.681 528.677 842.832 528.677 845.802 532.387 845.802 541.648L845.802 560.55C845.802 570.56 841.722 575.001 830.981 577.601 824.68 579.451 816.899 579.821 810.229 579.821 768.346 579.821 752.035 562.03 752.035 516.437L752.035 516.437Z" fill="#FFFFFF" transform="matrix(1.00037 0 0 1 0 93.2197)"/><path d="M864.343 335.943C864.343 314.812 878.054 302.581 902.516 302.581 926.977 302.581 941.059 314.812 941.059 335.943 941.059 357.074 927.348 369.666 902.516 369.666 877.684 369.666 864.343 357.435 864.343 335.943ZM872.493 561.299 872.493 401.548C872.493 392.657 877.684 388.577 886.945 390.057 892.875 391.167 897.325 391.537 902.516 391.537 908.076 391.537 912.526 391.167 918.457 390.057 927.727 388.577 932.917 392.648 932.917 401.548L932.917 561.299C932.917 572.05 928.837 576.5 918.096 576.5L887.333 576.5C876.953 576.5 872.512 572.05 872.512 561.299L872.493 561.299 872.493 561.299Z" fill="#FFFFFF" transform="matrix(1.00037 0 0 1 0 93.2197)"/><path d="M971.451 473.823C971.451 402.288 1004.81 366.335 1071.9 366.335 1092.28 366.335 1107.48 370.415 1115.26 373.376 1123.78 377.086 1127.86 383.016 1125.64 392.648L1121.19 413.779C1118.97 426.01 1112.3 426.38 1101.55 423.04 1090.8 419.33 1084.13 417.849 1074.87 417.849 1045.59 417.849 1034.1 434.16 1034.1 473.074 1034.1 511.987 1045.96 529.038 1075.24 529.038 1085.25 529.038 1093.4 527.558 1108.23 523.107 1118.98 520.147 1124.54 523.107 1124.54 534.968L1124.54 555.35C1124.54 565.361 1121.21 570.551 1111.57 573.882 1101.93 577.962 1086.74 580.552 1069.69 580.552 1004.08 580.552 971.47 544.6 971.47 473.805L971.451 473.823 971.451 473.823Z" fill="#FFFFFF" transform="matrix(1.00037 0 0 1 0 93.2197)"/><path d="M1062.54 164.905 1013.49 204.567C1008.85 208.323 1006.77 214.411 1008.15 220.23L1016.69 256.017C1019.75 268.849 1031.22 277.897 1044.4 277.897L1049.25 277.897C1054.95 277.897 1059.57 273.28 1059.57 267.572L1059.57 238.697C1059.57 236.588 1061.29 234.876 1063.4 234.876L1074.54 234.876C1076.65 234.876 1078.37 236.588 1078.37 238.697L1078.37 267.572C1078.37 273.271 1082.98 277.897 1088.69 277.897L1093.54 277.897C1106.72 277.897 1118.19 268.849 1121.25 256.017L1129.79 220.23C1131.17 214.42 1129.1 208.323 1124.45 204.567L1075.4 164.905C1071.65 161.879 1066.29 161.879 1062.54 164.905L1062.54 164.905Z" fill="#FFFFFF" transform="matrix(1.00037 0 0 1 0 93.2197)"/><path d="M1065.37 104.157C1064.02 89.4837 1053.37 71.2576 1037.47 69.1296 1027.21 67.7604 1018.02 72.8119 1012.93 81.5641 1008.56 89.0581 1008.43 97.5235 1008.83 105.97 1009.54 121.236 1013.79 134.707 1025.19 145.346 1026.66 146.715 1028.38 147.733 1030.24 148.436 1036.83 151.563 1044.85 151.434 1050.93 146.493 1062.42 137.158 1066.68 118.285 1065.38 104.148L1065.38 104.148Z" fill="#FFFFFF" transform="matrix(1.00037 0 0 1 0 93.2197)"/><path d="M1129.01 108.626C1129.6 93.906 1121.44 74.4402 1105.96 70.2306 1095.97 67.5198 1086.2 71.3223 1079.99 79.3252 1074.67 86.1808 1073.43 94.5537 1072.71 102.982 1071.41 118.201 1073.85 132.116 1083.75 144.171 1085.03 145.716 1086.59 146.956 1088.34 147.9 1094.46 151.869 1102.43 152.803 1109.12 148.705 1121.74 140.97 1128.44 122.818 1129.01 108.626Z" fill="#FFFFFF" transform="matrix(1.00037 0 0 1 0 93.2197)"/><path d="M1170.69 174.119C1176.67 162.407 1177.31 143.579 1166.34 134.401 1159.25 128.471 1149.92 127.907 1141.9 132.079 1135.03 135.65 1130.9 141.979 1127.17 148.538 1120.43 160.39 1117.21 172.574 1120.75 186.045 1121.2 187.775 1122.01 189.366 1123.07 190.782 1126.56 196.287 1132.66 200.015 1139.61 199.183 1152.73 197.619 1164.93 185.407 1170.69 174.119Z" fill="#FFFFFF" transform="matrix(1.00037 0 0 1 0 93.2197)"/><path d="M996.755 199.183C1003.7 200.006 1009.81 196.287 1013.3 190.782 1014.36 189.366 1015.17 187.775 1015.62 186.045 1019.15 172.584 1015.93 160.39 1009.2 148.538 1005.47 141.979 1001.34 135.65 994.47 132.079 986.448 127.907 977.104 128.471 970.026 134.401 959.054 143.579 959.701 162.407 965.678 174.119 971.432 185.407 983.636 197.619 996.755 199.183L996.755 199.183Z" fill="#FFFFFF" transform="matrix(1.00037 0 0 1 0 93.2197)"/><path d="M1236.53 209.868C1245.93 164.183 1236.97 117.572 1211.31 78.622 1185.65 39.6626 1146.36 13.0358 1100.66 3.63597 1054.98-5.76389 1008.36 3.19188 969.397 28.8564 930.438 54.521 903.811 93.8135 894.411 139.508 885.011 185.194 893.967 231.814 919.632 270.764 945.296 309.723 984.589 336.35 1030.28 345.75 1042.64 348.294 1055.07 349.488 1067.39 349.377 1093.28 349.145 1118.7 343.104 1142.11 331.613L1160.46 359.461 1178.96 347.526 1179.29 347.314 1197.05 335.869 1178.53 307.753C1208.21 282.625 1228.57 248.56 1236.53 209.868L1236.53 209.868ZM1140.91 289.194C1110.32 309.344 1073.72 316.375 1037.84 308.993 1001.96 301.61 971.109 280.71 950.967 250.123 930.817 219.537 923.786 182.936 931.169 147.067 938.552 111.188 959.451 80.3429 990.038 60.1924 1012.35 45.4912 1037.86 37.7752 1063.96 37.5347 1073.64 37.4514 1083.4 38.3951 1093.1 40.3842 1128.97 47.7672 1159.83 68.6671 1179.98 99.2536 1221.57 162.388 1204.04 247.597 1140.91 289.194Z" fill="#FFFFFF" transform="matrix(1.00037 0 0 1 0 93.2197)"/><path d="M1331.41 568.441 1324.68 572.79 1324.34 573.003 1205.4 388.53 1178.96 347.526 1179.29 347.314 1197.05 335.869 1200.37 333.723C1204.7 330.938 1210.45 332.178 1213.25 336.507L1339.29 531.971C1347.19 544.22 1343.66 560.55 1331.41 568.441L1331.41 568.441Z" fill="#FFFFFF" transform="matrix(1.00037 0 0 1 0 93.2197)"/><path d="M1324.68 572.79 1324.34 573.003 1317.61 577.351C1305.36 585.243 1289.04 581.718 1281.14 569.478L1155.1 374.014C1152.31 369.684 1153.55 363.921 1157.88 361.127L1157.88 361.127 1160.46 359.461 1178.96 347.526 1179.29 347.314 1205.73 388.318 1324.68 572.79Z" fill="#FFFFFF" transform="matrix(1.00037 0 0 1 0 93.2197)"/></g></svg>