<?xml version="1.0" encoding="UTF-8" standalone="no"?>
<!-- Created with Inkscape (http://www.inkscape.org/) -->

<svg
   width="319.61667mm"
   height="137.84795mm"
   viewBox="0 0 319.61667 137.84795"
   version="1.1"
   id="svg1"
   xml:space="preserve"
   xmlns="http://www.w3.org/2000/svg"
   xmlns:svg="http://www.w3.org/2000/svg"><defs
     id="defs1"><clipPath
       id="clip0-6"><rect
         x="34"
         y="111"
         width="1208"
         height="521"
         id="rect1-1" /></clipPath></defs><g
     id="layer1"
     transform="translate(34.696754,-145.9943)"><g
       clip-path="url(#clip0-6)"
       transform="matrix(0.26458333,0,0,0.26458333,-43.69259,116.62556)"
       id="g12"><path
         d="m 996.018,256.474 c 3.552,0.447 9.132,4.784 28.172,20.113 25.43,20.47 26.61,21.705 26.61,27.904 0,3.616 -7.72,36.095 -9.57,40.261 -4.24,9.544 -13.57,15.244 -24.94,15.244 -5.87,0 -8.99,-1.39 -10.84,-4.821 -1.1,-2.045 -1.25,-4.096 -1.25,-17.163 v -14.836 l -1.7,-1.112 c -2.566,-1.672 -13.093,-1.163 -14.461,0.696 -0.769,1.048 -0.974,4.365 -0.974,15.709 0,16.175 -0.414,17.916 -4.838,20.279 -3.266,1.743 -11.319,1.653 -16.694,-0.189 -7.297,-2.497 -12.542,-7.155 -15.464,-13.735 -1.772,-3.987 -9.607,-36.91 -9.607,-40.367 0,-6.074 1.134,-7.263 26.286,-27.534 12.863,-10.37 24.55,-19.307 25.969,-19.862 1.158,-0.452 2.117,-0.736 3.301,-0.587 z m 77.302,-29.771 c 2.22,0.215 4.4,0.813 6.46,1.815 4.23,2.061 7.2,5.301 9.59,10.457 2.05,4.429 2.2,16.972 0.27,22.747 -3.15,9.433 -12.7,20.375 -21.59,24.729 -5.79,2.84 -12.73,3.355 -16.65,1.235 -3.63,-1.963 -7.81,-7.013 -8.9,-10.774 -1.61,-5.507 -1.15,-15.943 0.98,-22.355 2.21,-6.639 7.05,-15.309 11.17,-20.006 5,-5.689 12,-8.493 18.67,-7.848 z m -156.853,-0.058 c 2.205,-0.218 4.509,-0.041 6.858,0.558 7.372,1.88 12.746,6.74 18.202,16.451 5.286,9.412 7.607,18.241 6.972,26.508 -0.637,8.256 -3.041,12.946 -8.646,16.861 -3.108,2.169 -9.933,2.541 -14.811,0.802 -10.097,-3.598 -20.261,-14.183 -24.405,-25.422 C 899.264,258.686 899,256.7 899,250.12 c 0,-7.044 0.184,-8.233 1.79,-11.602 3.341,-7.012 9.062,-11.219 15.677,-11.873 z M 1026.1,172.651 c 11.33,1.543 21.14,12.673 23.38,28.752 2.28,16.284 -7.45,37.814 -19.58,43.342 -2.93,1.333 -8.15,1.573 -11.74,0.536 -3.98,-1.147 -8.74,-4.936 -11.68,-9.296 -5.75,-8.553 -8.119,-18.352 -7.461,-30.907 0.897,-17.082 5.391,-25.981 15.461,-30.602 3.89,-1.788 7.84,-2.339 11.62,-1.825 z m -59.34,-0.519 c 2.422,0.283 4.881,1.021 7.448,2.223 6.431,3.011 13.8,12.574 16.688,21.66 0.573,1.794 1.218,6.346 1.435,10.114 0.505,8.68 -0.935,16.255 -4.556,23.962 -5.776,12.294 -14.492,17.378 -24.472,14.27 -4.523,-1.409 -7.447,-3.547 -11.074,-8.1 -6.716,-8.434 -9.969,-17.71 -10.811,-30.838 -0.78,-12.143 1.528,-20.702 7.144,-26.492 3.452,-3.559 6.011,-5.028 10.964,-6.291 2.425,-0.619 4.811,-0.791 7.234,-0.508 z"
         fill="#f87759"
         fill-rule="evenodd"
         id="path1" /><path
         d="m 992.418,111.012 c 7.427,-0.068 14.782,0.147 19.112,0.671 61.56,7.447 111.66,48.6 131.18,107.761 8.34,25.27 9.59,55.653 3.41,82.695 -4.1,17.948 -11.96,36.171 -22.2,51.478 -7.28,10.885 -13.5,18.297 -22.65,27.032 l -7.29,6.951 7.97,12.343 c 6.76,10.478 7.82,12.477 7.01,13.247 -1.14,1.076 -29.45,19.312 -30.74,19.802 -0.58,0.221 -3.67,-3.985 -8.74,-11.908 -4.32,-6.735 -8.16,-12.257 -8.55,-12.27 -0.38,-0.013 -3.22,1.04 -6.3,2.338 -43.54,18.352 -91.665,16.397 -133.622,-5.426 -17.883,-9.306 -32.669,-20.979 -45.655,-36.052 -38.043,-44.158 -48.743,-105.418 -27.785,-159.067 20.852,-53.374 68.912,-91.183 125.288,-98.568 4.633,-0.607 12.134,-0.958 19.562,-1.027 z m 1.087,33.359 c -6.63,-0.005 -13.246,0.325 -17.595,0.993 -18.275,2.806 -35.455,9.348 -49.567,18.875 -3.529,2.382 -7.16,4.833 -8.07,5.446 -3.445,2.326 -16.094,14.588 -19.684,19.084 -11.91,14.918 -19.878,30.598 -24.198,47.608 -9.278,36.557 -2.105,73.572 20.064,103.566 20.656,27.943 51.766,45.79 86.718,49.749 7.43,0.842 24.567,0.309 32.047,-0.997 28.35,-4.95 52.43,-18.171 71.83,-39.436 35.39,-38.803 41.62,-98.103 15.09,-143.604 -19.12,-32.781 -51.12,-54.46 -88.96,-60.263 -4.4,-0.674 -11.05,-1.015 -17.675,-1.021 z"
         fill="#343434"
         fill-rule="evenodd"
         id="path2" /><path
         d="m 136.397,382.011 c 5.064,-0.07 9.293,0.194 11.673,0.807 8.649,2.228 9.928,5.181 9.93,22.927 0.001,11.787 -0.103,12.834 -1.567,15.8 -2.125,4.304 -4.721,5.454 -13.833,6.117 -12.124,0.885 -17.732,2.667 -22.088,7.015 -4.665,4.655 -7.257,12.377 -7.282,21.685 l -0.012,4.557 14.529,0.219 c 15.958,0.24 17.403,0.583 20.611,4.874 1.34,1.793 1.453,2.925 1.647,16.535 0.191,13.323 0.09,14.878 -1.139,17.65 -1.005,2.27 -2.098,3.433 -4.311,4.596 -2.75,1.444 -3.982,1.576 -17.131,1.818 l -14.168,0.261 -0.19,56.739 c -0.186,55.663 -0.216,56.782 -1.581,59.103 -0.765,1.3 -2.458,2.99 -3.761,3.753 -2.204,1.292 -3.626,1.398 -20.4866,1.519 -10.7257,0.075 -19.0946,-0.155 -20.5112,-0.567 -1.3161,-0.385 -3.1249,-1.365 -4.0193,-2.177 -3.5923,-3.27 -3.5014,-1.653 -3.5014,-62.108 V 506.9 l -8.3753,-0.281 c -9.2908,-0.314 -12.6005,-1.377 -15.1684,-4.879 -1.314,-1.793 -1.424,-2.997 -1.591,-17.401 -0.1739,-15.02 -0.1336,-15.557 1.3794,-18.206 2.197,-3.847 5.9902,-5.047 16.0635,-5.088 l 7.6918,-0.028 v -8.462 c 0,-24.063 7.8804,-43.514 22.1942,-54.782 9.2624,-7.29 23.4323,-12.675 38.3143,-14.561 5.719,-0.726 11.619,-1.131 16.683,-1.201 z"
         fill="#343434"
         fill-rule="evenodd"
         id="path3" /><path
         d="m 845.817,383.001 c 12.904,-0.042 21.12,2.839 27.262,9.557 4.656,5.097 6.954,12.039 6.921,20.929 -0.067,18.323 -11.398,28.709 -32.131,29.452 -4.325,0.157 -9.405,0 -11.284,-0.344 -7.998,-1.468 -13.732,-4.489 -18.352,-9.672 -4.909,-5.506 -6.204,-9.659 -6.232,-19.988 -0.029,-10.415 1.271,-14.495 6.444,-20.202 6.344,-7 13.906,-9.688 27.372,-9.732 z"
         fill="#343434"
         fill-rule="evenodd"
         id="path4" /><path
         d="m 737.468,384 c 19.608,0 20.403,0.049 22.257,1.437 1.058,0.794 2.538,2.485 3.287,3.764 1.339,2.283 1.367,3.87 1.702,95.004 0.198,53.61 0.602,93.259 0.962,94.05 2.713,5.975 5.802,7.451 15.723,7.516 12.207,0.08 12.601,0.698 12.601,19.733 0,7.804 -0.301,14.161 -0.726,15.286 -2.618,6.936 -10.981,9.806 -29.582,10.147 -6.369,0.116 -12.498,0.067 -13.623,-0.109 -21.162,-3.345 -31.714,-12.347 -36.986,-31.547 l -1.83,-6.662 -0.18,-100.547 c -0.173,-94.898 -0.113,-100.681 1.019,-102.894 0.659,-1.29 2.065,-2.983 3.123,-3.761 1.843,-1.36 2.762,-1.417 22.253,-1.417 z"
         fill="#343434"
         fill-rule="evenodd"
         id="path5" /><path
         d="m 595.719,440.044 c 9.609,-0.216 21.619,0.378 27.699,1.542 24.291,4.65 41.571,16.073 49.521,32.739 3.441,7.211 4.562,12.106 4.986,21.75 1.182,26.966 -11.641,43.396 -39.461,50.566 -4.325,1.115 -10.327,2.346 -13.335,2.737 -4.436,0.574 -55.082,4.153 -58.783,4.153 -1.218,0 -0.977,1.992 1.116,9.234 1.82,6.293 3.231,8.953 6.961,13.103 6.072,6.761 15.961,10.321 30.529,10.989 15.144,0.696 29.955,-1.604 47.051,-7.31 11.083,-3.697 12.642,-3.935 16.185,-2.453 4.289,1.794 4.813,3.809 4.813,18.539 0,10.909 -0.201,13.525 -1.238,16.216 -3.443,8.931 -17.111,14.753 -44.052,18.766 -8.607,1.281 -34.765,1.853 -42.853,0.934 -32.871,-3.728 -54.117,-17.147 -65.431,-41.316 -6.178,-13.193 -8.876,-27.452 -9.344,-49.368 -0.37,-17.403 0.434,-25.969 3.642,-38.7 9.14,-36.28 34.184,-57.282 73.493,-61.627 2.361,-0.26 5.298,-0.422 8.501,-0.494 z m 3.502,40.297 c -3.468,-0.007 -5.825,0.278 -8.599,0.957 -13.947,3.423 -23.234,16.251 -25.041,34.594 -0.432,4.388 -0.365,4.779 0.817,4.771 0.705,-0.003 8.982,-0.6 18.39,-1.33 19.184,-1.483 26.148,-2.663 32.134,-5.441 7.93,-3.685 11.407,-9.771 9.982,-17.478 -0.922,-4.997 -2.178,-7.279 -5.637,-10.241 -4.482,-3.843 -9.253,-5.349 -18.15,-5.732 -1.46,-0.063 -2.739,-0.098 -3.896,-0.1 z"
         fill="#343434"
         fill-rule="evenodd"
         id="path6" /><path
         d="m 1001.29,440.092 c 21.93,0.748 36.89,4.747 42.4,11.328 3.09,3.695 3.08,6.917 -0.04,21.829 -1.53,7.287 -3.26,13.992 -3.86,14.901 -3.1,4.769 -6.97,4.948 -20.46,0.944 -8.87,-2.634 -10.12,-2.831 -18.04,-2.87 -19.887,-0.093 -30.032,7.003 -34.705,24.272 -4.921,18.186 -2.972,48.99 3.839,60.723 5.58,9.604 13.315,13.763 27.487,14.775 7.509,0.538 16.699,-0.831 29.799,-4.439 7.61,-2.096 8.27,-2.171 11.06,-1.276 2.16,0.694 3.35,1.61 4.36,3.352 1.29,2.212 1.39,3.525 1.39,17.116 0,14.086 -0.07,14.862 -1.6,18.004 -1.22,2.49 -2.46,3.768 -5.11,5.3 -4.55,2.624 -12.18,5.137 -19.84,6.54 -8.37,1.532 -31.189,1.91 -39.833,0.66 -28.979,-4.187 -48.1,-16.977 -59.421,-39.748 -11.714,-23.558 -14.195,-66.017 -5.602,-95.859 2.231,-7.74 7.514,-18.966 11.722,-24.898 15.132,-21.334 41.365,-31.854 76.454,-30.654 z"
         fill="#343434"
         fill-rule="evenodd"
         id="path7" /><path
         d="m 479.862,441 c 7.913,-0.008 9.351,0.533 12.454,4.687 1.335,1.789 1.415,2.902 1.603,22.694 0.191,19.97 0.142,20.931 -1.234,23.771 -1.078,2.226 -2.204,3.334 -4.533,4.463 -2.974,1.438 -3.655,1.484 -16.493,1.1 -11.893,-0.356 -29.863,-1.855 -35.027,-2.919 l -1.862,-0.384 -0.184,63.404 c -0.184,63.252 -0.188,63.412 -1.619,65.332 -0.789,1.059 -2.477,2.538 -3.75,3.288 -2.137,1.26 -3.708,1.376 -20.383,1.525 -14.363,0.129 -18.628,-0.041 -20.796,-0.824 -3.336,-1.206 -5.517,-3.611 -6.465,-7.13 -0.486,-1.807 -0.658,-29.304 -0.534,-85.722 0.177,-81.385 0.208,-83.109 1.529,-85.294 0.742,-1.227 2.603,-2.837 4.136,-3.58 2.529,-1.223 4.235,-1.35 18.424,-1.347 17.198,0 18.795,0.317 21.725,4.306 1.205,1.641 1.446,3.125 1.641,10.111 l 0.229,8.189 4.544,-4.365 c 8.369,-8.042 20.395,-14.989 33.522,-19.365 4.906,-1.636 6.911,-1.935 13.073,-1.94 z"
         fill="#343434"
         fill-rule="evenodd"
         id="path8" /><path
         d="m 311.192,444 c 16.764,0 18.637,0.116 21.303,1.332 2.282,1.043 3.216,2.003 4.265,4.388 1.316,2.99 1.339,4.729 1.162,87.581 l -0.181,84.528 -1.433,1.933 c -3.169,4.276 -4.689,4.649 -20.011,4.902 -8.726,0.145 -15.256,-0.057 -17.426,-0.538 -5.652,-1.257 -8.442,-5.283 -8.442,-12.182 0,-1.601 -0.137,-2.913 -0.304,-2.913 -0.168,0 -2.236,1.467 -4.595,3.257 -8.182,6.206 -18.26,10.705 -30.5,13.607 -8.035,1.907 -24.076,2.709 -31.995,1.602 -6.096,-0.854 -15.066,-3.741 -20.763,-6.682 -7.149,-3.692 -15.45,-12.343 -19.517,-20.339 -4.076,-8.012 -6.417,-15.193 -8.261,-25.326 C 173.03,571.099 173,569.759 173,511.046 v -59.89 l 1.559,-2.52 c 2.764,-4.47 4.562,-4.778 26.417,-4.535 21.109,0.233 21.453,0.303 23.917,4.838 1.115,2.051 1.236,6.361 1.612,57.66 0.224,30.492 0.633,56.364 0.91,57.495 2.355,9.623 5.152,14.562 10.171,17.956 4.574,3.096 7.893,3.901 15.742,3.821 5.741,-0.06 7.853,-0.419 13.473,-2.292 6.571,-2.191 12.975,-5.544 15.97,-8.361 l 1.531,-1.439 v -60.826 c 0,-60.051 0.018,-60.858 1.402,-63.588 0.992,-1.955 2.234,-3.14 4.254,-4.064 2.579,-1.177 4.62,-1.301 21.234,-1.301 z"
         fill="#343434"
         fill-rule="evenodd"
         id="path9" /><path
         d="m 827.37,461.01 c 1.279,-0.039 2.785,0.039 4.584,0.212 7.91,0.759 20.182,0.759 28.095,0 7.195,-0.692 9.706,0.135 11.745,3.862 1.134,2.073 1.206,6.843 1.206,78.359 0,76.011 -0.003,76.158 -1.434,78.886 -2.751,5.243 -3.612,5.442 -24.54,5.63 -14.755,0.132 -19.005,-0.033 -21.19,-0.828 -3.23,-1.172 -5.604,-3.875 -6.319,-7.192 -0.285,-1.316 -0.517,-36.198 -0.517,-77.52 0,-70.536 0.075,-75.262 1.209,-77.335 1.529,-2.796 3.324,-3.959 7.161,-4.074 z"
         fill="#343434"
         fill-rule="evenodd"
         id="path10" /><path
         d="m 1119.39,409.078 c 1.25,0.18 2.98,0.779 3.82,1.335 1.47,0.96 113.54,173.987 116.53,179.913 4.06,8.029 2.5,19.685 -3.49,26.028 -2.23,2.357 -14.98,11.008 -20.3,13.772 -4.32,2.243 -13.8,2.526 -18.78,0.558 -1.96,-0.78 -5.09,-2.849 -6.95,-4.598 -2.5,-2.37 -18.03,-25.938 -60.57,-91.937 -34.81,-54.011 -57.33,-89.6 -57.55,-90.92 -0.57,-3.533 1.22,-6.683 5.31,-9.346 37.78,-24.612 38.86,-25.248 41.98,-24.805 z"
         fill="#ea755e"
         fill-rule="evenodd"
         id="path11" /><path
         d="m 1118.94,409.078 c 1.26,0.18 2.99,0.781 3.84,1.338 1.47,0.961 113.95,174.286 116.96,180.222 4.07,8.042 2.5,19.718 -3.51,26.072 -0.28,0.295 -0.73,0.689 -1.3,1.157 L 1234.76,618 1094,422.778 l 4.95,-3.198 c 16.45,-10.56 17.65,-10.835 19.99,-10.502 z"
         fill="#f87759"
         fill-rule="evenodd"
         id="path12" /></g></g></svg>
